<svg
  width="24"
  height="24"
  viewBox="0 0 24 24"
  fill="none"
  xmlns="http://www.w3.org/2000/svg"
>
  <path
    fill-rule="evenodd"
    clip-rule="evenodd"
    d="M20.25 5.25C20.6642 5.25 21 5.58579 21 6C21 6.41421 20.6642 6.75 20.25 6.75H3.75C3.33579 6.75 3 6.41421 3 6C3 5.58579 3.33579 5.25 3.75 5.25H20.25ZM20.25 9.25C20.6642 9.25 21 9.58579 21 10C21 10.4142 20.6642 10.75 20.25 10.75H11.75C11.3358 10.75 11 10.4142 11 10C11 9.58579 11.3358 9.25 11.75 9.25H20.25ZM21 14C21 13.5858 20.6642 13.25 20.25 13.25H3.75C3.33579 13.25 3 13.5858 3 14C3 14.4142 3.33579 14.75 3.75 14.75H20.25C20.6642 14.75 21 14.4142 21 14ZM20.25 17.25C20.6642 17.25 21 17.5858 21 18C21 18.4142 20.6642 18.75 20.25 18.75H11.75C11.3358 18.75 11 18.4142 11 18C11 17.5858 11.3358 17.25 11.75 17.25H20.25Z"
    fill="white"
    fill-opacity="0.9"
  />
</svg>
