<svg
  width="24"
  height="24"
  viewBox="0 0 24 24"
  fill="none"
  xmlns="http://www.w3.org/2000/svg"
>
  <path
    fill-rule="evenodd"
    clip-rule="evenodd"
    d="M20 3C19.5858 3 19.25 3.33579 19.25 3.75V20.25C19.25 20.6642 19.5858 21 20 21C20.4142 21 20.75 20.6642 20.75 20.25V3.75C20.75 3.33579 20.4142 3 20 3ZM15 6H6C4.89543 6 4 6.89543 4 8V9C4 10.1046 4.89543 11 6 11H15C16.1046 11 17 10.1046 17 9V8C17 6.89543 16.1046 6 15 6ZM11 13H15C16.1046 13 17 13.8954 17 15V16C17 17.1046 16.1046 18 15 18H11C9.89543 18 9 17.1046 9 16V15C9 13.8954 9.89543 13 11 13ZM15 7.5C15.2761 7.5 15.5 7.72386 15.5 8V9C15.5 9.27614 15.2761 9.5 15 9.5H6C5.72386 9.5 5.5 9.27614 5.5 9V8C5.5 7.72386 5.72386 7.5 6 7.5H15ZM15.5 15C15.5 14.7239 15.2761 14.5 15 14.5H11C10.7239 14.5 10.5 14.7239 10.5 15V16C10.5 16.2761 10.7239 16.5 11 16.5H15C15.2761 16.5 15.5 16.2761 15.5 16V15Z"
    fill="white"
    fill-opacity="0.9"
  />
</svg>
