<svg
  width="24"
  height="24"
  viewBox="0 0 24 24"
  fill="none"
  xmlns="http://www.w3.org/2000/svg"
>
  <path
    fill-rule="evenodd"
    clip-rule="evenodd"
    d="M11 6V15C11 16.1046 10.1046 17 9 17H8C6.89543 17 6 16.1046 6 15V6C6 4.89543 6.89543 4 8 4H9C10.1046 4 11 4.89543 11 6ZM21 20C21 20.4142 20.6642 20.75 20.25 20.75H3.75C3.33579 20.75 3 20.4142 3 20C3 19.5858 3.33579 19.25 3.75 19.25H20.25C20.6642 19.25 21 19.5858 21 20ZM18 15V11C18 9.89543 17.1046 9 16 9H15C13.8954 9 13 9.89543 13 11V15C13 16.1046 13.8954 17 15 17H16C17.1046 17 18 16.1046 18 15ZM9.5 6C9.5 5.72386 9.27614 5.5 9 5.5H8C7.72386 5.5 7.5 5.72386 7.5 6V15C7.5 15.2761 7.72386 15.5 8 15.5H9C9.27614 15.5 9.5 15.2761 9.5 15V6ZM16 10.5C16.2761 10.5 16.5 10.7239 16.5 11V15C16.5 15.2761 16.2761 15.5 16 15.5H15C14.7239 15.5 14.5 15.2761 14.5 15V11C14.5 10.7239 14.7239 10.5 15 10.5H16Z"
    fill="white"
    fill-opacity="0.9"
  />
</svg>
