<svg
  width="24"
  height="24"
  viewBox="0 0 24 24"
  fill="none"
  xmlns="http://www.w3.org/2000/svg"
>
  <path
    fill-rule="evenodd"
    clip-rule="evenodd"
    d="M4 3C4.41421 3 4.75 3.33579 4.75 3.75V20.25C4.75 20.6642 4.41421 21 4 21C3.58579 21 3.25 20.6642 3.25 20.25V3.75C3.25 3.33579 3.58579 3 4 3ZM9 6H18C19.1046 6 20 6.89543 20 8V9C20 10.1046 19.1046 11 18 11H9C7.89543 11 7 10.1046 7 9V8C7 6.89543 7.89543 6 9 6ZM13 13H9C7.89543 13 7 13.8954 7 15V16C7 17.1046 7.89543 18 9 18H13C14.1046 18 15 17.1046 15 16V15C15 13.8954 14.1046 13 13 13ZM9 7.5C8.72386 7.5 8.5 7.72386 8.5 8V9C8.5 9.27614 8.72386 9.5 9 9.5H18C18.2761 9.5 18.5 9.27614 18.5 9V8C18.5 7.72386 18.2761 7.5 18 7.5H9ZM8.5 15C8.5 14.7239 8.72386 14.5 9 14.5H13C13.2761 14.5 13.5 14.7239 13.5 15V16C13.5 16.2761 13.2761 16.5 13 16.5H9C8.72386 16.5 8.5 16.2761 8.5 16V15Z"
    fill="white"
    fill-opacity="0.9"
  />
</svg>
