<svg
  width="24"
  height="24"
  viewBox="0 0 24 24"
  fill="none"
  xmlns="http://www.w3.org/2000/svg"
>
  <path
    fill-rule="evenodd"
    clip-rule="evenodd"
    d="M3.75 5.25C3.33579 5.25 3 5.58579 3 6C3 6.41421 3.33579 6.75 3.75 6.75H20.25C20.6642 6.75 21 6.41421 21 6C21 5.58579 20.6642 5.25 20.25 5.25H3.75ZM3.75 9.25C3.33579 9.25 3 9.58579 3 10C3 10.4142 3.33579 10.75 3.75 10.75H12.25C12.6642 10.75 13 10.4142 13 10C13 9.58579 12.6642 9.25 12.25 9.25H3.75ZM3 14C3 13.5858 3.33579 13.25 3.75 13.25H20.25C20.6642 13.25 21 13.5858 21 14C21 14.4142 20.6642 14.75 20.25 14.75H3.75C3.33579 14.75 3 14.4142 3 14ZM3.75 17.25C3.33579 17.25 3 17.5858 3 18C3 18.4142 3.33579 18.75 3.75 18.75H12.25C12.6642 18.75 13 18.4142 13 18C13 17.5858 12.6642 17.25 12.25 17.25H3.75Z"
    fill="white"
    fill-opacity="0.9"
  />
</svg>
