<svg
  width="24"
  height="24"
  viewBox="0 0 24 24"
  fill="none"
  xmlns="http://www.w3.org/2000/svg"
>
  <path
    fill-rule="evenodd"
    clip-rule="evenodd"
    d="M18 7V11.25H20.25C20.6642 11.25 21 11.5858 21 12C21 12.4142 20.6642 12.75 20.25 12.75H18V17C18 18.1046 17.1046 19 16 19H15C13.8954 19 13 18.1046 13 17V12.75H11V14C11 15.1046 10.1046 16 9 16H8C6.89543 16 6 15.1046 6 14V12.75H3.75C3.33579 12.75 3 12.4142 3 12C3 11.5858 3.33579 11.25 3.75 11.25H6V10C6 8.89543 6.89543 8 8 8H9C10.1046 8 11 8.89543 11 10V11.25H13V7C13 5.89543 13.8954 5 15 5H16C17.1046 5 18 5.89543 18 7ZM16.5 7C16.5 6.72386 16.2761 6.5 16 6.5H15C14.7239 6.5 14.5 6.72386 14.5 7V17C14.5 17.2761 14.7239 17.5 15 17.5H16C16.2761 17.5 16.5 17.2761 16.5 17V7ZM9 9.5C9.27614 9.5 9.5 9.72386 9.5 10V14C9.5 14.2761 9.27614 14.5 9 14.5H8C7.72386 14.5 7.5 14.2761 7.5 14V10C7.5 9.72386 7.72386 9.5 8 9.5H9Z"
    fill="white"
    fill-opacity="0.9"
  />
</svg>
