<svg
  width="24"
  height="24"
  viewBox="0 0 24 24"
  fill="none"
  xmlns="http://www.w3.org/2000/svg"
>
  <path
    fill-rule="evenodd"
    clip-rule="evenodd"
    d="M21 4C21 4.41421 20.6642 4.75 20.25 4.75H3.75C3.33579 4.75 3 4.41421 3 4C3 3.58579 3.33579 3.25 3.75 3.25H20.25C20.6642 3.25 21 3.58579 21 4ZM11 9V18C11 19.1046 10.1046 20 9 20H8C6.89543 20 6 19.1046 6 18V9C6 7.89543 6.89543 7 8 7H9C10.1046 7 11 7.89543 11 9ZM18 13V9C18 7.89543 17.1046 7 16 7H15C13.8954 7 13 7.89543 13 9V13C13 14.1046 13.8954 15 15 15H16C17.1046 15 18 14.1046 18 13ZM9.5 9C9.5 8.72386 9.27614 8.5 9 8.5H8C7.72386 8.5 7.5 8.72386 7.5 9V18C7.5 18.2761 7.72386 18.5 8 18.5H9C9.27614 18.5 9.5 18.2761 9.5 18V9ZM16 8.5C16.2761 8.5 16.5 8.72386 16.5 9V13C16.5 13.2761 16.2761 13.5 16 13.5H15C14.7239 13.5 14.5 13.2761 14.5 13V9C14.5 8.72386 14.7239 8.5 15 8.5H16Z"
    fill="white"
    fill-opacity="0.9"
  />
</svg>
