<svg
  width="24"
  height="24"
  viewBox="0 0 24 24"
  fill="none"
  xmlns="http://www.w3.org/2000/svg"
>
  <path
    fill-rule="evenodd"
    clip-rule="evenodd"
    d="M5.75 4.25C5.33579 4.25 5 4.58579 5 5C5 5.41421 5.33579 5.75 5.75 5.75H18.25C18.6642 5.75 19 5.41421 19 5C19 4.58579 18.6642 4.25 18.25 4.25H5.75ZM5.75 18.25C5.33579 18.25 5 18.5858 5 19C5 19.4142 5.33579 19.75 5.75 19.75H18.25C18.6642 19.75 19 19.4142 19 19C19 18.5858 18.6642 18.25 18.25 18.25H5.75ZM6 9H18C18.5523 9 19 9.44772 19 10V14C19 14.5523 18.5523 15 18 15H6C5.44772 15 5 14.5523 5 14V10C5 9.44772 5.44772 9 6 9ZM6.5 13.5V10.5H17.5V13.5H6.5Z"
    fill="white"
    fill-opacity="0.9"
  />
</svg>
