<svg
  width="24"
  height="24"
  viewBox="0 0 24 24"
  fill="none"
  xmlns="http://www.w3.org/2000/svg"
>
  <path
    fill-rule="evenodd"
    clip-rule="evenodd"
    d="M12 3C12.4142 3 12.75 3.33579 12.75 3.75V6H17C18.1046 6 19 6.89543 19 8V9C19 10.1046 18.1046 11 17 11H12.75V13H14C15.1046 13 16 13.8954 16 15V16C16 17.1046 15.1046 18 14 18H12.75V20.25C12.75 20.6642 12.4142 21 12 21C11.5858 21 11.25 20.6642 11.25 20.25V18H10C8.89543 18 8 17.1046 8 16V15C8 13.8954 8.89543 13 10 13H11.25V11H7C5.89543 11 5 10.1046 5 9V8C5 6.89543 5.89543 6 7 6H11.25V3.75C11.25 3.33579 11.5858 3 12 3ZM7 7.5C6.72386 7.5 6.5 7.72386 6.5 8V9C6.5 9.27614 6.72386 9.5 7 9.5H17C17.2761 9.5 17.5 9.27614 17.5 9V8C17.5 7.72386 17.2761 7.5 17 7.5H7ZM9.5 15C9.5 14.7239 9.72386 14.5 10 14.5H14C14.2761 14.5 14.5 14.7239 14.5 15V16C14.5 16.2761 14.2761 16.5 14 16.5H10C9.72386 16.5 9.5 16.2761 9.5 16V15Z"
    fill="white"
    fill-opacity="0.9"
  />
</svg>
