<svg
  width="24"
  height="24"
  viewBox="0 0 24 24"
  fill="none"
  xmlns="http://www.w3.org/2000/svg"
>
  <mask
    id="mask0_507_16272"
    style="mask-type: alpha"
    maskUnits="userSpaceOnUse"
    x="2"
    y="2"
    width="20"
    height="20"
  >
    <path
      opacity="0.3"
      fill-rule="evenodd"
      clip-rule="evenodd"
      d="M5.78193 8.78186C3.53513 9.94702 2 12.2942 2 14.9999C2 18.8659 5.13401 21.9999 9 21.9999C11.7057 21.9999 14.0529 20.4648 15.2181 18.218C14.4865 18.5974 13.6794 18.8515 12.8253 18.9518C11.8354 19.9101 10.4866 20.4999 9 20.4999C5.96243 20.4999 3.5 18.0375 3.5 14.9999C3.5 13.5133 4.08979 12.1645 5.04814 11.1746C5.14845 10.3205 5.40253 9.51347 5.78193 8.78186Z"
      fill="#0E1318"
    />
    <circle cx="15" cy="9" r="6.25" stroke="#0E1318" stroke-width="1.5" />
    <path
      opacity="0.6"
      fill-rule="evenodd"
      clip-rule="evenodd"
      d="M8.78193 5.78186C6.53513 6.94702 5 9.2942 5 11.9999C5 15.8659 8.13401 18.9999 12 18.9999C14.7057 18.9999 17.0529 17.4648 18.2181 15.218C17.4865 15.5974 16.6794 15.8515 15.8253 15.9518C14.8354 16.9101 13.4866 17.4999 12 17.4999C8.96243 17.4999 6.5 15.0375 6.5 11.9999C6.5 10.5133 7.08979 9.1645 8.04814 8.17464C8.14845 7.32054 8.40253 6.51347 8.78193 5.78186Z"
      fill="#0E1318"
    />
  </mask>
  <g mask="url(#mask0_507_16272)">
    <path
      fill-rule="evenodd"
      clip-rule="evenodd"
      d="M15 14.5C18.0376 14.5 20.5 12.0376 20.5 9C20.5 5.96243 18.0376 3.5 15 3.5C11.9624 3.5 9.5 5.96243 9.5 9C9.5 12.0376 11.9624 14.5 15 14.5ZM18.218 15.2181C20.4648 14.0529 22 11.7057 22 9C22 5.13401 18.866 2 15 2C11.134 2 8 5.13401 8 9C8 12.866 11.134 16 15 16C15.2792 16 15.5546 15.9837 15.8252 15.9519C14.8354 16.9102 13.4865 17.4999 12 17.4999C8.96243 17.4999 6.5 15.0375 6.5 11.9999C6.5 10.5133 7.08979 9.1645 8.04814 8.17464C8.14845 7.32054 8.40253 6.51347 8.78193 5.78186C7.4986 6.44738 6.44745 7.49853 5.78193 8.78186C3.53513 9.94702 2 12.2942 2 14.9999C2 18.8659 5.13401 21.9999 9 21.9999C11.7057 21.9999 14.0529 20.4648 15.2181 18.218C16.5014 17.5525 17.5525 16.5014 18.218 15.2181ZM12.8253 18.9518C12.5546 18.9836 12.2792 18.9999 12 18.9999C8.13401 18.9999 5 15.8659 5 11.9999C5 11.7207 5.01635 11.4453 5.04814 11.1746C4.08979 12.1645 3.5 13.5133 3.5 14.9999C3.5 18.0375 5.96243 20.4999 9 20.4999C10.4866 20.4999 11.8354 19.9101 12.8253 18.9518Z"
      fill="white"
      fill-opacity="0.9"
    />
  </g>
</svg>
