<svg
  width="24"
  height="24"
  viewBox="0 0 24 24"
  fill="none"
  xmlns="http://www.w3.org/2000/svg"
>
  <path
    fill-rule="evenodd"
    clip-rule="evenodd"
    d="M16 18C12.6863 18 10 15.3137 10 12C10 8.68629 12.6863 6 16 6C19.3137 6 22 8.68629 22 12C22 15.3137 19.3137 18 16 18ZM4 8.75H8.74C9.15421 8.75 9.49 8.41421 9.49 8C9.49 7.58579 9.15421 7.25 8.74 7.25H4C3.58579 7.25 3.25 7.58579 3.25 8C3.25 8.41421 3.58579 8.75 4 8.75ZM4 16.75H8.75C9.16421 16.75 9.5 16.4142 9.5 16C9.5 15.5858 9.16421 15.25 8.75 15.25H4C3.58579 15.25 3.25 15.5858 3.25 16C3.25 16.4142 3.58579 16.75 4 16.75ZM7.75 12.75H2.5C2.08579 12.75 1.75 12.4142 1.75 12C1.75 11.5858 2.08579 11.25 2.5 11.25H7.75C8.16421 11.25 8.5 11.5858 8.5 12C8.5 12.4142 8.16421 12.75 7.75 12.75ZM20.5 12C20.5 14.4853 18.4853 16.5 16 16.5C13.5147 16.5 11.5 14.4853 11.5 12C11.5 9.51472 13.5147 7.5 16 7.5C18.4853 7.5 20.5 9.51472 20.5 12Z"
    fill="white"
    fill-opacity="0.9"
  />
</svg>
