<svg
  width="24"
  height="24"
  viewBox="0 0 24 24"
  fill="none"
  xmlns="http://www.w3.org/2000/svg"
>
  <path
    fill-rule="evenodd"
    clip-rule="evenodd"
    d="M7.07812 4.72266H11.5215C13.5462 4.72266 15.0159 5.01074 15.9307 5.58691C16.8454 6.16309 17.3027 7.07942 17.3027 8.33594C17.3027 9.18881 17.1025 9.88867 16.7021 10.4355C16.3018 10.9824 15.7695 11.3112 15.1055 11.4219V11.5195C16.0104 11.7214 16.6631 12.099 17.0635 12.6523C17.4639 13.2057 17.6641 13.9414 17.6641 14.8594C17.6641 16.1615 17.1937 17.1771 16.2529 17.9062C15.3122 18.6354 14.0345 19 12.4199 19H7.07812V4.72266ZM10.1055 10.377H11.8633C12.6836 10.377 13.2777 10.25 13.6455 9.99609C14.0133 9.74219 14.1973 9.32227 14.1973 8.73633C14.1973 8.18945 13.9971 7.7972 13.5967 7.55957C13.1963 7.32194 12.5632 7.20312 11.6973 7.20312H10.1055V10.377ZM10.1055 12.7793V16.5H12.0781C12.9115 16.5 13.5267 16.3405 13.9238 16.0215C14.321 15.7025 14.5195 15.2142 14.5195 14.5566C14.5195 13.3717 13.6732 12.7793 11.9805 12.7793H10.1055Z"
    fill="white"
    fill-opacity="0.9"
  />
</svg>
