<svg
  width="24"
  height="24"
  viewBox="0 0 24 24"
  fill="none"
  xmlns="http://www.w3.org/2000/svg"
>
  <path
    fill-rule="evenodd"
    clip-rule="evenodd"
    d="M8.77002 19L8.47998 17.6289H8.40967C7.9292 18.2324 7.4502 18.6411 6.97266 18.855C6.49511 19.0688 5.89893 19.1758 5.18408 19.1758C4.229 19.1758 3.48047 18.9297 2.93848 18.4375C2.39648 17.9453 2.12549 17.2451 2.12549 16.3369C2.12549 14.3916 3.68114 13.3721 6.79248 13.2783L8.42725 13.2256V12.6279C8.42725 11.8721 8.26465 11.314 7.93945 10.9536C7.61426 10.5933 7.09424 10.4131 6.37939 10.4131C5.57666 10.4131 4.66846 10.6592 3.65479 11.1514L3.20654 10.0352C3.68115 9.77734 4.20117 9.5752 4.7666 9.42871C5.33203 9.28223 5.89892 9.20898 6.46729 9.20898C7.61573 9.20898 8.46679 9.46386 9.02051 9.97363C9.57422 10.4834 9.85107 11.3008 9.85107 12.4258V19H8.77002ZM5.47412 17.9717C6.38233 17.9717 7.0957 17.7227 7.61426 17.2246C8.13281 16.7266 8.39209 16.0293 8.39209 15.1328V14.2627L6.93311 14.3242C5.77294 14.3652 4.93653 14.5454 4.42383 14.8647C3.91113 15.1841 3.65479 15.6807 3.65479 16.3545C3.65479 16.8818 3.81445 17.2832 4.13379 17.5586C4.45313 17.834 4.8999 17.9717 5.47412 17.9717ZM21.1538 19L19.5542 14.9131H14.4038L12.8218 19H11.3101L16.3901 6.09766H17.647L22.7007 19H21.1538ZM19.0884 13.5684L17.5942 9.58691C17.4009 9.08301 17.2017 8.46485 16.9966 7.73242C16.8677 8.29492 16.6831 8.91308 16.4429 9.58691L14.9312 13.5684H19.0884Z"
    fill="white"
    fill-opacity="0.9"
  />
</svg>
