<svg
  width="24"
  height="24"
  viewBox="0 0 24 24"
  fill="none"
  xmlns="http://www.w3.org/2000/svg"
>
  <path
    d="M21.5007 11.7503C21.5007 12.1645 21.1649 12.5003 20.7507 12.5003H11.2507C10.8365 12.5003 10.5007 12.1645 10.5007 11.7503C10.5007 11.3361 10.8365 11.0003 11.2507 11.0003H20.7507C21.1649 11.0003 21.5007 11.3361 21.5007 11.7503Z"
    fill="white"
    fill-opacity="0.9"
  />
  <path
    d="M18.5007 16.7493C18.5007 17.1635 18.1649 17.4993 17.7507 17.4993H11.2507C10.8365 17.4993 10.5007 17.1635 10.5007 16.7493C10.5007 16.3351 10.8365 15.9993 11.2507 15.9993H17.7507C18.1649 15.9993 18.5007 16.3351 18.5007 16.7493Z"
    fill="white"
    fill-opacity="0.9"
  />
  <path
    d="M15.7507 7.50027C16.1649 7.50027 16.5007 7.16449 16.5007 6.75027C16.5007 6.33606 16.1649 6.00027 15.7507 6.00027H11.2507C10.8365 6.00027 10.5007 6.33606 10.5007 6.75027C10.5007 7.16449 10.8365 7.50027 11.2507 7.50027H15.7507Z"
    fill="white"
    fill-opacity="0.9"
  />
  <path
    d="M6.50073 6.33306L7.73944 7.57177C7.88007 7.71222 8.07069 7.79111 8.26944 7.79111C8.46819 7.79111 8.65882 7.71222 8.79944 7.57177C8.93989 7.43114 9.01878 7.24052 9.01878 7.04177C9.01878 6.84302 8.93989 6.65239 8.79944 6.51177L6.65444 4.36577C6.53844 4.24977 6.40044 4.15677 6.24844 4.09377C6.09268 4.02965 5.92637 3.99786 5.75951 3.99935C5.75659 3.99931 5.75366 3.9993 5.75073 3.9993C5.72699 3.9993 5.7035 4.0004 5.68032 4.00256C5.62845 4.00631 5.57669 4.01329 5.52532 4.02353C5.28262 4.07193 5.05965 4.191 4.88444 4.36577L2.73944 6.51177C2.66575 6.58043 2.60665 6.66323 2.56566 6.75523C2.52467 6.84723 2.50263 6.94654 2.50085 7.04725C2.49907 7.14795 2.5176 7.24798 2.55532 7.34137C2.59304 7.43475 2.64919 7.51959 2.7204 7.59081C2.79162 7.66202 2.87646 7.71817 2.96984 7.75589C3.06323 7.79361 3.16326 7.81214 3.26396 7.81036C3.36467 7.80858 3.46398 7.78654 3.55598 7.74555C3.64798 7.70456 3.73078 7.64545 3.79944 7.57177L5.00073 6.37048V17.6301L3.79944 16.4288C3.65882 16.2883 3.46819 16.2094 3.26944 16.2094C3.07069 16.2094 2.88007 16.2883 2.73944 16.4288C2.59899 16.5694 2.5201 16.76 2.5201 16.9588C2.5201 17.1575 2.59899 17.3481 2.73944 17.4888L4.88444 19.6348C5.00062 19.7509 5.13859 19.843 5.29044 19.9058C5.51917 20.0002 5.77073 20.0249 6.01345 19.9767C6.25617 19.9284 6.47919 19.8095 6.65444 19.6348L8.79944 17.4888C8.87313 17.4201 8.93223 17.3373 8.97322 17.2453C9.01421 17.1533 9.03626 17.054 9.03803 16.9533C9.03981 16.8526 9.02129 16.7526 8.98356 16.6592C8.94584 16.5658 8.8897 16.4809 8.81848 16.4097C8.74726 16.3385 8.66243 16.2824 8.56904 16.2446C8.47565 16.2069 8.37562 16.1884 8.27492 16.1902C8.17422 16.192 8.0749 16.214 7.9829 16.255C7.8909 16.296 7.8081 16.3551 7.73944 16.4288L6.50073 17.6675V6.33306Z"
    fill="white"
    fill-opacity="0.9"
  />
</svg>
