<svg
  width="24"
  height="24"
  viewBox="0 0 24 24"
  fill="none"
  xmlns="http://www.w3.org/2000/svg"
>
  <path
    d="M11.751 2.5C12.1652 2.5 12.501 2.83579 12.501 3.25V12.75C12.501 13.1642 12.1652 13.5 11.751 13.5C11.3368 13.5 11.001 13.1642 11.001 12.75V3.25C11.001 2.83579 11.3368 2.5 11.751 2.5Z"
    fill="white"
    fill-opacity="0.9"
  />
  <path
    d="M16.75 5.5C17.1642 5.5 17.5 5.83579 17.5 6.25V12.75C17.5 13.1642 17.1642 13.5 16.75 13.5C16.3358 13.5 16 13.1642 16 12.75V6.25C16 5.83579 16.3358 5.5 16.75 5.5Z"
    fill="white"
    fill-opacity="0.9"
  />
  <path
    d="M7.50098 8.25C7.50098 7.83579 7.16519 7.5 6.75098 7.5C6.33676 7.5 6.00098 7.83579 6.00098 8.25V12.75C6.00098 13.1642 6.33676 13.5 6.75098 13.5C7.16519 13.5 7.50098 13.1642 7.50098 12.75V8.25Z"
    fill="white"
    fill-opacity="0.9"
  />
  <path
    d="M6.33376 17.5L7.57247 16.2613C7.71292 16.1207 7.79181 15.93 7.79181 15.7313C7.79181 15.5325 7.71292 15.3419 7.57247 15.2013C7.43184 15.0608 7.24122 14.982 7.04247 14.982C6.84372 14.982 6.65309 15.0608 6.51247 15.2013L4.36647 17.3463C4.25047 17.4623 4.15747 17.6003 4.09447 17.7523C4.03035 17.9081 3.99856 18.0744 4.00005 18.2412C4.00002 18.2441 4 18.2471 4 18.25C4 18.2737 4.0011 18.2972 4.00326 18.3204C4.00701 18.3723 4.01399 18.424 4.02423 18.4754C4.07263 18.7181 4.1917 18.9411 4.36647 19.1163L6.51247 21.2613C6.58113 21.335 6.66393 21.3941 6.75593 21.4351C6.84793 21.4761 6.94724 21.4981 7.04795 21.4999C7.14865 21.5017 7.24868 21.4831 7.34207 21.4454C7.43546 21.4077 7.52029 21.3515 7.59151 21.2803C7.66273 21.2091 7.71887 21.1243 7.75659 21.0309C7.79431 20.9375 7.81284 20.8375 7.81106 20.7368C7.80928 20.6361 7.78724 20.5368 7.74625 20.4448C7.70526 20.3528 7.64616 20.27 7.57247 20.2013L6.37118 19H17.6308L16.4295 20.2013C16.289 20.3419 16.2101 20.5325 16.2101 20.7313C16.2101 20.93 16.289 21.1207 16.4295 21.2613C16.5701 21.4017 16.7607 21.4806 16.9595 21.4806C17.1582 21.4806 17.3488 21.4017 17.4895 21.2613L19.6355 19.1163C19.7516 19.0001 19.8437 18.8621 19.9065 18.7103C20.0009 18.4816 20.0256 18.23 19.9774 17.9873C19.9291 17.7446 19.8102 17.5215 19.6355 17.3463L17.4895 15.2013C17.4208 15.1276 17.338 15.0685 17.246 15.0275C17.154 14.9865 17.0547 14.9645 16.954 14.9627C16.8533 14.9609 16.7533 14.9794 16.6599 15.0172C16.5665 15.0549 16.4816 15.111 16.4104 15.1823C16.3392 15.2535 16.2831 15.3383 16.2453 15.4317C16.2076 15.5251 16.1891 15.6251 16.1909 15.7258C16.1927 15.8265 16.2147 15.9258 16.2557 16.0178C16.2967 16.1098 16.3558 16.1926 16.4295 16.2613L17.6682 17.5H6.33376Z"
    fill="white"
    fill-opacity="0.9"
  />
</svg>
