<svg
  width="24"
  height="24"
  viewBox="0 0 24 24"
  fill="none"
  xmlns="http://www.w3.org/2000/svg"
>
  <path
    fill-rule="evenodd"
    clip-rule="evenodd"
    d="M6.25 3V5H7.75V3C7.75 2.58579 7.41421 2.25 7 2.25C6.58579 2.25 6.25 2.58579 6.25 3ZM6.25 15.7518V9H7.75V15.7518C7.75 15.8899 7.86193 16.0018 8 16.0018H15.0111V17.5018H8C7.0335 17.5018 6.25 16.7183 6.25 15.7518ZM19.0111 17.5018V16.0018H20.9782C21.3924 16.0018 21.7282 16.3376 21.7282 16.7518C21.7282 17.166 21.3924 17.5018 20.9782 17.5018H19.0111ZM17.7611 8V20.7842C17.7611 21.1984 17.4253 21.5342 17.0111 21.5342C16.5969 21.5342 16.2611 21.1984 16.2611 20.7842V8C16.2611 7.86193 16.1492 7.75 16.0111 7.75H3C2.58579 7.75 2.25 7.41421 2.25 7C2.25 6.58579 2.58579 6.25 3 6.25H16.0111C16.9776 6.25 17.7611 7.0335 17.7611 8Z"
    fill="white"
    fill-opacity="0.9"
  />
</svg>
