<svg
  width="24"
  height="24"
  viewBox="0 0 24 24"
  fill="none"
  xmlns="http://www.w3.org/2000/svg"
>
  <path
    fill-rule="evenodd"
    clip-rule="evenodd"
    d="M3.75 5.25C3.33579 5.25 3 5.58579 3 6C3 6.41421 3.33579 6.75 3.75 6.75H20.25C20.6642 6.75 21 6.41421 21 6C21 5.58579 20.6642 5.25 20.25 5.25H3.75ZM3.75 17.25C3.33579 17.25 3 17.5858 3 18C3 18.4142 3.33579 18.75 3.75 18.75H20.25C20.6642 18.75 21 18.4142 21 18C21 17.5858 20.6642 17.25 20.25 17.25H3.75ZM9 9H15C15.5523 9 16 9.44772 16 10V14C16 14.5523 15.5523 15 15 15H9C8.44772 15 8 14.5523 8 14V10C8 9.44772 8.44772 9 9 9ZM9.5 13.5V10.5H14.5V13.5H9.5Z"
    fill="white"
    fill-opacity="0.9"
  />
</svg>
