<svg
  width="24"
  height="24"
  viewBox="0 0 24 24"
  fill="none"
  xmlns="http://www.w3.org/2000/svg"
>
  <path
    fill-rule="evenodd"
    clip-rule="evenodd"
    d="M6.75 3.75C6.75 3.33579 6.41421 3 6 3C5.58579 3 5.25 3.33579 5.25 3.75V20.25C5.25 20.6642 5.58579 21 6 21C6.41421 21 6.75 20.6642 6.75 20.25V3.75ZM18.75 3.75C18.75 3.33579 18.4142 3 18 3C17.5858 3 17.25 3.33579 17.25 3.75V20.25C17.25 20.6642 17.5858 21 18 21C18.4142 21 18.75 20.6642 18.75 20.25V3.75ZM15 9V15C15 15.5523 14.5523 16 14 16H10C9.44772 16 9 15.5523 9 15V9C9 8.44772 9.44772 8 10 8H14C14.5523 8 15 8.44772 15 9ZM10.5 14.5V9.5H13.5V14.5H10.5Z"
    fill="white"
    fill-opacity="0.9"
  />
</svg>
