<svg
  width="24"
  height="24"
  viewBox="0 0 24 24"
  fill="none"
  xmlns="http://www.w3.org/2000/svg"
>
  <path
    fill-rule="evenodd"
    clip-rule="evenodd"
    d="M14.2168 5.72055L10.2168 18.7206C10.095 19.1164 9.67533 19.3386 9.27944 19.2168C8.88354 19.095 8.66135 18.6753 8.78317 18.2794L12.7832 5.27942C12.905 4.88352 13.3247 4.66134 13.7206 4.78315C14.1165 4.90497 14.3386 5.32465 14.2168 5.72055ZM2.97728 11.415L7.32686 8.63172C7.67576 8.40846 7.77761 7.94464 7.55435 7.59574C7.3311 7.24685 6.86727 7.14499 6.51838 7.36825L1.88865 10.3308C1.03712 10.8757 1.03712 11.9543 1.88865 12.4992L6.44267 15.4133C6.79157 15.6366 7.25539 15.5347 7.47865 15.1858C7.7019 14.8369 7.60005 14.3731 7.25116 14.1498L2.97728 11.415ZM16.5958 14.1498C16.247 14.3731 16.1451 14.8369 16.3684 15.1858C16.5916 15.5347 17.0554 15.6366 17.4043 15.4133L22.0341 12.4508C22.8856 11.9059 22.8856 10.8272 22.0341 10.2823L17.48 7.36825C17.1311 7.145 16.6673 7.24685 16.4441 7.59574C16.2208 7.94464 16.3227 8.40846 16.6716 8.63172L20.9454 11.3666L16.5958 14.1498Z"
    fill="white"
    fill-opacity="0.9"
  />
</svg>
