<svg
  width="24"
  height="24"
  viewBox="0 0 24 24"
  fill="none"
  xmlns="http://www.w3.org/2000/svg"
>
  <path
    fill-rule="evenodd"
    clip-rule="evenodd"
    d="M11.25 5.34616L9.03033 7.56583C8.73744 7.85873 8.26256 7.85873 7.96967 7.56583C7.67678 7.27294 7.67678 6.79807 7.96967 6.50517L10.7981 3.67675C11.4815 2.99333 12.5896 2.99333 13.273 3.67675L16.1014 6.50517C16.3943 6.79807 16.3943 7.27294 16.1014 7.56583C15.8085 7.85873 15.3336 7.85873 15.0407 7.56583L12.75 5.2751V11.25H19.25C19.6642 11.25 20 11.5858 20 12C20 12.4142 19.6642 12.75 19.25 12.75H12.75V18.7959L15.0407 16.5052C15.3336 16.2123 15.8085 16.2123 16.1014 16.5052C16.3943 16.7981 16.3943 17.2729 16.1014 17.5658L13.273 20.3943C12.5896 21.0777 11.4815 21.0777 10.7981 20.3943L7.96967 17.5658C7.67678 17.2729 7.67678 16.7981 7.96967 16.5052C8.26256 16.2123 8.73744 16.2123 9.03033 16.5052L11.25 18.7248V12.75H4.75C4.33579 12.75 4 12.4142 4 12C4 11.5858 4.33579 11.25 4.75 11.25H11.25V5.34616Z"
    fill="white"
    fill-opacity="0.9"
  />
</svg>
