<svg
  width="24"
  height="24"
  viewBox="0 0 24 24"
  fill="none"
  xmlns="http://www.w3.org/2000/svg"
>
  <path
    fill-rule="evenodd"
    clip-rule="evenodd"
    d="M8.28769 11.0304L11.25 8.06808V17.2501H4.75C4.33579 17.2501 4 17.5858 4 18.0001C4 18.4143 4.33579 18.7501 4.75 18.7501H19.25C19.6642 18.7501 20 18.4143 20 18.0001C20 17.5858 19.6642 17.2501 19.25 17.2501H12.75V8.06808L15.7123 11.0304C16.0052 11.3233 16.4801 11.3233 16.773 11.0304C17.0659 10.7375 17.0659 10.2626 16.773 9.96973L13.2374 6.43419C12.554 5.75078 11.446 5.75078 10.7626 6.43419L7.22703 9.96973C6.93414 10.2626 6.93414 10.7375 7.22703 11.0304C7.51992 11.3233 7.9948 11.3233 8.28769 11.0304Z"
    fill="white"
    fill-opacity="0.9"
  />
</svg>
