<svg
  width="24"
  height="24"
  viewBox="0 0 24 24"
  fill="none"
  xmlns="http://www.w3.org/2000/svg"
>
  <path
    fill-rule="evenodd"
    clip-rule="evenodd"
    d="M20 6C20 5.58579 19.6642 5.25 19.25 5.25H4.75C4.33579 5.25 4 5.58579 4 6C4 6.41421 4.33579 6.75 4.75 6.75H11.25V15.432L8.28769 12.4697C7.9948 12.1768 7.51992 12.1768 7.22703 12.4697C6.93414 12.7626 6.93414 13.2374 7.22703 13.5303L10.7626 17.0659C11.446 17.7493 12.554 17.7493 13.2374 17.0659L16.773 13.5303C17.0659 13.2374 17.0659 12.7626 16.773 12.4697C16.4801 12.1768 16.0052 12.1768 15.7123 12.4697L12.75 15.432V6.75H19.25C19.6642 6.75 20 6.41421 20 6Z"
    fill="white"
    fill-opacity="0.9"
  />
</svg>
