<svg
  width="24"
  height="24"
  viewBox="0 0 24 24"
  fill="none"
  xmlns="http://www.w3.org/2000/svg"
>
  <path
    fill-rule="evenodd"
    clip-rule="evenodd"
    d="M20.7279 7.71619C21.8292 6.61486 21.8292 4.82924 20.7279 3.72791C19.6266 2.62657 17.841 2.62657 16.7396 3.72791L14.33 6.13757L12.7886 4.59618C12.4957 4.30329 12.0208 4.30329 11.7279 4.59618C11.435 4.88908 11.435 5.36395 11.7279 5.65684L13.2693 7.19823L6.46101 14.0065C5.88087 14.5867 5.42587 15.2796 5.12413 16.0426L3.60912 19.8734C3.53904 20.0506 3.53904 20.2479 3.60912 20.4251C3.76145 20.8103 4.19719 20.999 4.58238 20.8467L8.41323 19.3317C9.17619 19.0299 9.86915 18.5749 10.4493 17.9948L17.2576 11.1865L18.799 12.7279C19.0919 13.0208 19.5667 13.0208 19.8596 12.7279C20.1525 12.435 20.1525 11.9601 19.8596 11.6673L18.3182 10.1259L20.7279 7.71619ZM17.2576 9.06519L19.6672 6.65553C20.1828 6.13998 20.1828 5.30411 19.6672 4.78857C19.1517 4.27302 18.3158 4.27302 17.8003 4.78857L15.3906 7.19823L17.2576 9.06519ZM14.33 8.25889L7.52167 15.0672C7.27696 15.3119 7.06193 15.5834 6.88035 15.8759L10.4469 15.8759L16.1969 10.1259L14.33 8.25889Z"
    fill="white"
    fill-opacity="0.9"
  />
</svg>
