<svg
  width="24"
  height="24"
  viewBox="0 0 24 24"
  fill="none"
  xmlns="http://www.w3.org/2000/svg"
>
  <path
    fill-rule="evenodd"
    clip-rule="evenodd"
    d="M17.1036 5.64645C17.1973 5.74021 17.25 5.86739 17.25 6V7.25C17.25 7.44891 17.329 7.63968 17.4697 7.78033C17.6103 7.92098 17.8011 8 18 8C18.1989 8 18.3897 7.92098 18.5303 7.78033C18.671 7.63968 18.75 7.44891 18.75 7.25V5.5C18.75 5.10218 18.592 4.72064 18.3107 4.43934C18.0294 4.15804 17.6478 4 17.25 4H4.25C3.85218 4 3.47064 4.15804 3.18934 4.43934C2.90804 4.72064 2.75 5.10218 2.75 5.5V7.25C2.75 7.44891 2.82902 7.63968 2.96967 7.78033C3.11032 7.92098 3.30109 8 3.5 8C3.69891 8 3.88968 7.92098 4.03033 7.78033C4.17098 7.63968 4.25 7.44891 4.25 7.25V6C4.25 5.86739 4.30268 5.74021 4.39645 5.64645C4.49021 5.55268 4.61739 5.5 4.75 5.5H10V18C10 18.1326 9.94732 18.2598 9.85355 18.3536C9.75979 18.4473 9.63261 18.5 9.5 18.5H7.5C7.30109 18.5 7.11032 18.579 6.96967 18.7197C6.82902 18.8603 6.75 19.0511 6.75 19.25C6.75 19.4489 6.82902 19.6397 6.96967 19.7803C7.11032 19.921 7.30109 20 7.5 20H14C14.1989 20 14.3897 19.921 14.5303 19.7803C14.671 19.6397 14.75 19.4489 14.75 19.25C14.75 19.0511 14.671 18.8603 14.5303 18.7197C14.3897 18.579 14.1989 18.5 14 18.5H12C11.8674 18.5 11.7402 18.4473 11.6464 18.3536C11.5527 18.2598 11.5 18.1326 11.5 18V5.5H16.75C16.8826 5.5 17.0098 5.55268 17.1036 5.64645ZM20.2135 13.9537C20.1215 13.9127 20.0387 13.8536 19.97 13.7799L18 11.8099L16.03 13.7799C15.9613 13.8536 15.8785 13.9127 15.7865 13.9537C15.6945 13.9947 15.5952 14.0167 15.4945 14.0185C15.3938 14.0202 15.2938 14.0017 15.2004 13.964C15.107 13.9263 15.0222 13.8701 14.951 13.7989C14.8797 13.7277 14.8236 13.6429 14.7859 13.5495C14.7482 13.4561 14.7296 13.3561 14.7314 13.2554C14.7332 13.1547 14.7552 13.0553 14.7962 12.9633C14.8372 12.8713 14.8963 12.7885 14.97 12.7199L17.115 10.5739C17.231 10.4572 17.3689 10.3647 17.5208 10.3015C17.6726 10.2383 17.8355 10.2058 18 10.2058C18.1645 10.2058 18.3274 10.2383 18.4792 10.3015C18.6311 10.3647 18.769 10.4572 18.885 10.5739L21.03 12.7199C21.1037 12.7885 21.1628 12.8713 21.2038 12.9633C21.2448 13.0553 21.2668 13.1547 21.2686 13.2554C21.2704 13.3561 21.2518 13.4561 21.2141 13.5495C21.1764 13.6429 21.1203 13.7277 21.049 13.7989C20.9778 13.8701 20.893 13.9263 20.7996 13.964C20.7062 14.0017 20.6062 14.0202 20.5055 14.0185C20.4048 14.0167 20.3055 13.9947 20.2135 13.9537ZM15.7865 16.0461C15.8785 16.0871 15.9613 16.1462 16.03 16.2199L18 18.1899L19.97 16.2199C20.0387 16.1462 20.1215 16.0871 20.2135 16.0461C20.3055 16.0051 20.4048 15.9831 20.5055 15.9813C20.6062 15.9795 20.7062 15.998 20.7996 16.0358C20.893 16.0735 20.9778 16.1296 21.049 16.2008C21.1203 16.2721 21.1764 16.3569 21.2141 16.4503C21.2518 16.5437 21.2704 16.6437 21.2686 16.7444C21.2668 16.8451 21.2448 16.9444 21.2038 17.0364C21.1628 17.1284 21.1037 17.2112 21.03 17.2799L18.885 19.4259C18.769 19.5425 18.6311 19.6351 18.4792 19.6983C18.3274 19.7614 18.1645 19.7939 18 19.7939C17.8355 19.7939 17.6726 19.7614 17.5208 19.6983C17.3689 19.6351 17.231 19.5425 17.115 19.4259L14.97 17.2799C14.8963 17.2112 14.8372 17.1284 14.7962 17.0364C14.7552 16.9444 14.7332 16.8451 14.7314 16.7444C14.7296 16.6437 14.7482 16.5437 14.7859 16.4503C14.8236 16.3569 14.8797 16.2721 14.951 16.2008C15.0222 16.1296 15.107 16.0735 15.2004 16.0358C15.2938 15.998 15.3938 15.9795 15.4945 15.9813C15.5952 15.9831 15.6945 16.0051 15.7865 16.0461Z"
    fill="white"
    fill-opacity="0.9"
  />
</svg>
