<svg
  width="24"
  height="24"
  viewBox="0 0 24 24"
  fill="none"
  xmlns="http://www.w3.org/2000/svg"
>
  <path
    d="M6.04948 17.5326H4.5V4.20703H11.9284V5.58333H6.04948V10.4596H11.5729V11.8359H6.04948V17.5326Z"
    fill="white"
    fill-opacity="0.9"
  />
  <path
    d="M11.3633 22.0169C10.944 22.0169 10.5642 21.9531 10.224 21.8255V20.5404C10.6128 20.674 10.9531 20.7409 11.2448 20.7409C11.7066 20.7409 12.0621 20.5525 12.3112 20.1758C12.5603 19.799 12.7609 19.2613 12.9128 18.5625L14.9818 8.70052H13.2227L13.3411 8.08984L15.2188 7.48828L15.4284 6.57682C15.7079 5.36155 16.0938 4.50477 16.5859 4.00651C17.0842 3.50217 17.8194 3.25 18.7917 3.25C19.0347 3.25 19.3325 3.28646 19.6849 3.35938C20.0373 3.42622 20.3108 3.50217 20.5052 3.58724L20.1133 4.76302C19.6515 4.58681 19.2352 4.4987 18.8646 4.4987C18.3359 4.4987 17.9288 4.64757 17.6432 4.94531C17.3637 5.23698 17.1359 5.77474 16.9596 6.55859L16.7318 7.54297H18.901L18.6732 8.70052H16.513L14.3984 18.7083C14.1615 19.8568 13.7969 20.6953 13.3047 21.224C12.8125 21.7526 12.1654 22.0169 11.3633 22.0169Z"
    fill="white"
    fill-opacity="0.9"
  />
</svg>
