<svg
  width="24"
  height="24"
  viewBox="0 0 24 24"
  fill="none"
  xmlns="http://www.w3.org/2000/svg"
>
  <path
    fill-rule="evenodd"
    clip-rule="evenodd"
    d="M9.5 4H5.5C4.67157 4 4 4.67157 4 5.5V9.5C4 10.3284 4.67157 11 5.5 11H9.5C10.3284 11 11 10.3284 11 9.5V5.5C11 4.67157 10.3284 4 9.5 4ZM18.5 4H14.5C13.6716 4 13 4.67157 13 5.5V9.5C13 10.3284 13.6716 11 14.5 11H18.5C19.3284 11 20 10.3284 20 9.5V5.5C20 4.67157 19.3284 4 18.5 4ZM14.5 13H18.5C19.3284 13 20 13.6716 20 14.5V18.5C20 19.3284 19.3284 20 18.5 20H14.5C13.6716 20 13 19.3284 13 18.5V14.5C13 13.6716 13.6716 13 14.5 13ZM9.5 13H5.5C4.67157 13 4 13.6716 4 14.5V18.5C4 19.3284 4.67157 20 5.5 20H9.5C10.3284 20 11 19.3284 11 18.5V14.5C11 13.6716 10.3284 13 9.5 13ZM5.5 5.5V9.5H9.5V5.5H5.5ZM14.5 9.5V5.5H18.5V9.5H14.5ZM14.5 14.5V18.5H18.5V14.5H14.5ZM5.5 18.5V14.5H9.5V18.5H5.5Z"
    fill="white"
    fill-opacity="0.9"
  />
</svg>
