<svg
  width="24"
  height="24"
  viewBox="0 0 24 24"
  fill="none"
  xmlns="http://www.w3.org/2000/svg"
>
  <path
    fill-rule="evenodd"
    clip-rule="evenodd"
    d="M19 3H5C3.89543 3 3 3.89543 3 5V19C3 20.1046 3.89543 21 5 21H19C20.1046 21 21 20.1046 21 19V5C21 3.89543 20.1046 3 19 3ZM4.5 5C4.5 4.72386 4.72386 4.5 5 4.5H11.25V11.25H4.5V5ZM11.25 12.75H4.5V19C4.5 19.2761 4.72386 19.5 5 19.5H11.25V12.75ZM12.75 19.5V12.75H19.5V19C19.5 19.2761 19.2761 19.5 19 19.5H12.75ZM12.75 11.25V4.5H19C19.2761 4.5 19.5 4.72386 19.5 5V11.25H12.75Z"
    fill="white"
    fill-opacity="0.9"
  />
</svg>
