<svg
  width="24"
  height="24"
  viewBox="0 0 24 24"
  fill="none"
  xmlns="http://www.w3.org/2000/svg"
>
  <path
    fill-rule="evenodd"
    clip-rule="evenodd"
    d="M5.5 6.79198V17.208C6.07672 17.46 6.54 17.9233 6.79198 18.5H17.208C17.46 17.9233 17.9233 17.46 18.5 17.208V6.79198C17.9233 6.54 17.46 6.07672 17.208 5.5H6.79198C6.54 6.07672 6.07672 6.54 5.5 6.79198ZM6.94999 20H17.05C17.2816 21.1411 18.2905 22 19.5 22C20.8807 22 22 20.8807 22 19.5C22 18.2905 21.1411 17.2816 20 17.05V6.94999C21.1411 6.71836 22 5.70948 22 4.5C22 3.11929 20.8807 2 19.5 2C18.2905 2 17.2816 2.85888 17.05 4H6.94999C6.71836 2.85888 5.70948 2 4.5 2C3.11929 2 2 3.11929 2 4.5C2 5.70948 2.85888 6.71836 4 6.94999V17.05C2.85888 17.2816 2 18.2905 2 19.5C2 20.8807 3.11929 22 4.5 22C5.70948 22 6.71836 21.1411 6.94999 20ZM5.5 4.5C5.5 5.05228 5.05228 5.5 4.5 5.5C3.94772 5.5 3.5 5.05228 3.5 4.5C3.5 3.94772 3.94772 3.5 4.5 3.5C5.05228 3.5 5.5 3.94772 5.5 4.5ZM4.5 20.5C5.05228 20.5 5.5 20.0523 5.5 19.5C5.5 18.9477 5.05228 18.5 4.5 18.5C3.94772 18.5 3.5 18.9477 3.5 19.5C3.5 20.0523 3.94772 20.5 4.5 20.5ZM20.5 4.5C20.5 5.05228 20.0523 5.5 19.5 5.5C18.9477 5.5 18.5 5.05228 18.5 4.5C18.5 3.94772 18.9477 3.5 19.5 3.5C20.0523 3.5 20.5 3.94772 20.5 4.5ZM19.5 20.5C20.0523 20.5 20.5 20.0523 20.5 19.5C20.5 18.9477 20.0523 18.5 19.5 18.5C18.9477 18.5 18.5 18.9477 18.5 19.5C18.5 20.0523 18.9477 20.5 19.5 20.5ZM7 10.5C7 12.433 8.567 14 10.5 14C12.433 14 14 12.433 14 10.5C14 8.567 12.433 7 10.5 7C8.567 7 7 8.567 7 10.5ZM10.5 12.5C11.6046 12.5 12.5 11.6046 12.5 10.5C12.5 9.39543 11.6046 8.5 10.5 8.5C9.39543 8.5 8.5 9.39543 8.5 10.5C8.5 11.6046 9.39543 12.5 10.5 12.5ZM15 15.25C15.1381 15.25 15.25 15.1381 15.25 15V10H16.75V15C16.75 15.9665 15.9665 16.75 15 16.75H10V15.25H15Z"
    fill="white"
    fill-opacity="0.9"
  />
</svg>
