<svg
  width="24"
  height="24"
  viewBox="0 0 24 24"
  fill="none"
  xmlns="http://www.w3.org/2000/svg"
>
  <path
    fill-rule="evenodd"
    clip-rule="evenodd"
    d="M11.2499 18.1249L8.99093 15.8659C8.69804 15.573 8.22317 15.573 7.93027 15.8659C7.63738 16.1588 7.63738 16.6336 7.93027 16.9265L10.7587 19.755C11.4421 20.4384 12.5502 20.4384 13.2336 19.755L16.062 16.9265C16.3549 16.6336 16.3549 16.1588 16.062 15.8659C15.7691 15.573 15.2942 15.573 15.0013 15.8659L12.7499 18.1173V9.75C12.7499 9.33579 12.4142 9 11.9999 9C11.5857 9 11.2499 9.33579 11.2499 9.75V18.1249ZM2.8235 10.4848L8.99995 13.5239V11.8521L4.39752 9.58754L11.3377 6.17268C11.7553 5.96721 12.2446 5.96721 12.6622 6.17268L19.6024 9.58754L14.9999 11.8521V13.5239L21.1764 10.4848C21.6719 10.241 21.876 9.64159 21.6322 9.14605C21.5347 8.94798 21.3745 8.78773 21.1764 8.69027L13.3244 4.82678C12.4892 4.41584 11.5106 4.41584 10.6755 4.82678L2.8235 8.69027C2.32796 8.9341 2.1239 9.53348 2.36773 10.029C2.46519 10.2271 2.62544 10.3873 2.8235 10.4848Z"
    fill="white"
    fill-opacity="0.9"
  />
</svg>
