<svg
  width="24"
  height="24"
  viewBox="0 0 24 24"
  fill="none"
  xmlns="http://www.w3.org/2000/svg"
>
  <path
    fill-rule="evenodd"
    clip-rule="evenodd"
    d="M11.2499 5.80982L8.99093 8.06883C8.69804 8.36172 8.22317 8.36172 7.93027 8.06883C7.63738 7.77593 7.63738 7.30106 7.93027 7.00817L10.7587 4.17974C11.4421 3.49632 12.5502 3.49632 13.2336 4.17974L16.062 7.00817C16.3549 7.30106 16.3549 7.77593 16.062 8.06883C15.7691 8.36172 15.2942 8.36172 15.0013 8.06883L12.7499 5.81743V14.25C12.7499 14.6642 12.4142 15 11.9999 15C11.5857 15 11.2499 14.6642 11.2499 14.25V5.80982ZM8.99994 10.4761L2.8235 13.5152C2.62544 13.6127 2.46519 13.7729 2.36773 13.971C2.1239 14.4665 2.32796 15.0659 2.8235 15.3097L10.6755 19.1732C11.5106 19.5842 12.4892 19.5842 13.3244 19.1732L21.1764 15.3097C21.3745 15.2123 21.5347 15.052 21.6322 14.854C21.876 14.3584 21.6719 13.759 21.1764 13.5152L14.9999 10.4761V12.1479L19.6024 14.4125L12.6622 17.8273C12.2446 18.0328 11.7553 18.0328 11.3377 17.8273L4.39752 14.4125L8.99994 12.1479V10.4761Z"
    fill="white"
    fill-opacity="0.9"
  />
</svg>
