<svg
  width="24"
  height="24"
  viewBox="0 0 24 24"
  fill="none"
  xmlns="http://www.w3.org/2000/svg"
>
  <path
    fill-rule="evenodd"
    clip-rule="evenodd"
    d="M11.25 3.80982L8.991 6.06883C8.6981 6.36172 8.22323 6.36172 7.93034 6.06883C7.63744 5.77593 7.63744 5.30106 7.93034 5.00817L10.7588 2.17974C11.4422 1.49632 12.5502 1.49632 13.2336 2.17974L16.0621 5.00817C16.355 5.30106 16.355 5.77593 16.0621 6.06883C15.7692 6.36172 15.2943 6.36172 15.0014 6.06883L12.75 3.81743V13.25C12.75 13.6642 12.4142 14 12 14C11.5858 14 11.25 13.6642 11.25 13.25V3.80982ZM9.00001 8.47614L2.82356 11.5152C2.6255 11.6127 2.46525 11.7729 2.36779 11.971C2.12396 12.4665 2.32802 13.0659 2.82356 13.3097L10.6755 17.1732C11.5107 17.5842 12.4893 17.5842 13.3245 17.1732L21.1764 13.3097C21.3745 13.2123 21.5348 13.052 21.6322 12.854C21.876 12.3584 21.672 11.759 21.1764 11.5152L15 8.47614V10.1479L19.6024 12.4125L12.6622 15.8273C12.2447 16.0328 11.7554 16.0328 11.3378 15.8273L4.39758 12.4125L9.00001 10.1479V8.47614ZM2.82356 16.6516L4.52069 15.8165L6.21948 16.6524L4.39758 17.5488L11.3378 20.9637C11.7554 21.1692 12.2447 21.1692 12.6622 20.9637L19.6024 17.5488L17.7805 16.6524L19.4793 15.8165L21.1764 16.6516C21.672 16.8954 21.876 17.4948 21.6322 17.9903C21.5348 18.1884 21.3745 18.3486 21.1764 18.4461L13.3245 22.3096C12.4893 22.7205 11.5107 22.7205 10.6755 22.3096L2.82356 18.4461C2.32802 18.2023 2.12396 17.6029 2.36779 17.1073C2.46525 16.9093 2.6255 16.749 2.82356 16.6516Z"
    fill="white"
    fill-opacity="0.9"
  />
</svg>
