<svg
  width="24"
  height="24"
  viewBox="0 0 24 24"
  fill="none"
  xmlns="http://www.w3.org/2000/svg"
>
  <path
    fill-rule="evenodd"
    clip-rule="evenodd"
    d="M21.1764 6.5152L13.3244 2.65171C12.4892 2.24077 11.5106 2.24077 10.6755 2.65171L2.8235 6.5152C2.62544 6.61266 2.46519 6.77291 2.36773 6.97097C2.1239 7.46652 2.32796 8.0659 2.8235 8.30973L8.99994 11.3488V9.67705L4.39752 7.41246L11.3377 3.99761C11.7553 3.79214 12.2446 3.79214 12.6622 3.99761L19.6024 7.41246L14.9999 9.67705V11.3488L21.1764 8.30973C21.3745 8.21227 21.5347 8.05202 21.6322 7.85396C21.876 7.35841 21.6719 6.75903 21.1764 6.5152ZM2.8235 11.6516L4.52063 10.8165L6.21942 11.6524L4.39752 12.5489L8.99995 14.8134V16.4852L2.8235 13.4461C2.32796 13.2023 2.1239 12.6029 2.36773 12.1074C2.46519 11.9093 2.62544 11.749 2.8235 11.6516ZM19.6024 12.5489L17.7805 11.6524L19.4793 10.8165L21.1764 11.6516C21.6719 11.8954 21.876 12.4948 21.6322 12.9903C21.5347 13.1884 21.3745 13.3487 21.1764 13.4461L14.9999 16.4852V14.8134L19.6024 12.5489ZM11.2499 6.8864C11.2499 6.47219 11.5857 6.13641 11.9999 6.13641C12.4142 6.13641 12.7499 6.47219 12.7499 6.88641V20.25C12.7499 20.2746 12.7488 20.2989 12.7465 20.3228L15.0013 18.0679C15.2942 17.775 15.7691 17.775 16.062 18.0679C16.3549 18.3608 16.3549 18.8357 16.062 19.1286L13.2336 21.957C12.5502 22.6404 11.4421 22.6404 10.7587 21.957L7.93027 19.1286C7.63738 18.8357 7.63738 18.3608 7.93027 18.0679C8.22317 17.775 8.69804 17.775 8.99093 18.0679L11.2543 20.3313C11.2514 20.3046 11.2499 20.2775 11.2499 20.25V6.8864Z"
    fill="white"
    fill-opacity="0.9"
  />
</svg>
