<svg
  width="24"
  height="24"
  viewBox="0 0 24 24"
  fill="none"
  xmlns="http://www.w3.org/2000/svg"
>
  <path
    fill-rule="evenodd"
    clip-rule="evenodd"
    d="M11.625 5.25H7.125C4.43261 5.25 2.25 7.43261 2.25 10.125C2.25 12.8174 4.43261 15 7.125 15H11.625C13.653 15 15.3917 13.7617 16.1264 12H14.4317C13.8262 12.9045 12.7952 13.5 11.625 13.5H7.125C5.26104 13.5 3.75 11.989 3.75 10.125C3.75 8.26104 5.26104 6.75 7.125 6.75H11.625C12.4287 6.75 13.1669 7.03095 13.7465 7.5H15.7336C14.8673 6.14688 13.3509 5.25 11.625 5.25ZM17.2514 9H12.7514C10.7234 9 8.98468 10.2383 8.25001 12H9.94472C10.5502 11.0955 11.5812 10.5 12.7514 10.5H17.2514C19.1153 10.5 20.6264 12.011 20.6264 13.875C20.6264 15.739 19.1153 17.25 17.2514 17.25H12.7514C11.9476 17.25 11.2095 16.969 10.6299 16.5H8.64275C9.50905 17.8531 11.0255 18.75 12.7514 18.75H17.2514C19.9438 18.75 22.1264 16.5674 22.1264 13.875C22.1264 11.1826 19.9438 9 17.2514 9Z"
    fill="white"
    fill-opacity="0.9"
  />
</svg>
