<svg
  width="24"
  height="24"
  viewBox="0 0 24 24"
  fill="none"
  xmlns="http://www.w3.org/2000/svg"
>
  <path
    fill-rule="evenodd"
    clip-rule="evenodd"
    d="M20 6C20 7.10457 19.1046 8 18 8C16.8954 8 16 7.10457 16 6C16 4.89543 16.8954 4 18 4C19.1046 4 20 4.89543 20 6ZM4.75 5.25C4.33579 5.25 4 5.58579 4 6C4 6.41421 4.33579 6.75 4.75 6.75H12.25C12.6642 6.75 13 6.41421 13 6C13 5.58579 12.6642 5.25 12.25 5.25H4.75ZM4.75 11.25C4.33579 11.25 4 11.5858 4 12C4 12.4142 4.33579 12.75 4.75 12.75H12.25C12.6642 12.75 13 12.4142 13 12C13 11.5858 12.6642 11.25 12.25 11.25H4.75ZM4 18C4 17.5858 4.33579 17.25 4.75 17.25H12.25C12.6642 17.25 13 17.5858 13 18C13 18.4142 12.6642 18.75 12.25 18.75H4.75C4.33579 18.75 4 18.4142 4 18ZM18 14C19.1046 14 20 13.1046 20 12C20 10.8954 19.1046 10 18 10C16.8954 10 16 10.8954 16 12C16 13.1046 16.8954 14 18 14ZM20 18C20 19.1046 19.1046 20 18 20C16.8954 20 16 19.1046 16 18C16 16.8954 16.8954 16 18 16C19.1046 16 20 16.8954 20 18Z"
    fill="white"
    fill-opacity="0.9"
  />
</svg>
