<svg
  width="24"
  height="24"
  viewBox="0 0 24 24"
  fill="none"
  xmlns="http://www.w3.org/2000/svg"
>
  <path
    fill-rule="evenodd"
    clip-rule="evenodd"
    d="M6.72412 8H5.69189V4.07275H5.63037L4.42041 4.90674V3.94629L5.69531 3.06787H6.72412V8ZM11.75 5.25C11.3358 5.25 11 5.58579 11 6C11 6.41421 11.3358 6.75 11.75 6.75H19.25C19.6642 6.75 20 6.41421 20 6C20 5.58579 19.6642 5.25 19.25 5.25H11.75ZM11.75 11.25C11.3358 11.25 11 11.5858 11 12C11 12.4142 11.3358 12.75 11.75 12.75H19.25C19.6642 12.75 20 12.4142 20 12C20 11.5858 19.6642 11.25 19.25 11.25H11.75ZM11 18C11 17.5858 11.3358 17.25 11.75 17.25H19.25C19.6642 17.25 20 17.5858 20 18C20 18.4142 19.6642 18.75 19.25 18.75H11.75C11.3358 18.75 11 18.4142 11 18ZM4.44092 11.0444V11.0615H5.39795V11.041C5.39795 10.5864 5.72607 10.272 6.20459 10.272C6.65576 10.272 6.97705 10.5522 6.97705 10.9487C6.97705 11.27 6.80273 11.5264 6.10889 12.2031L4.49902 13.7788V14.5H8.05713V13.6421H5.89697V13.5806L6.84033 12.6816C7.69482 11.8784 7.98535 11.417 7.98535 10.8804C7.98535 10.0327 7.26758 9.44141 6.23877 9.44141C5.17236 9.44141 4.44092 10.0908 4.44092 11.0444ZM6.31396 18.8604H5.70215V18.0913H6.30371C6.77197 18.0913 7.08984 17.8179 7.08984 17.4146C7.08984 17.0181 6.78223 16.7651 6.30029 16.7651C5.82178 16.7651 5.50391 17.0352 5.47656 17.4624H4.52295C4.55713 16.5293 5.25098 15.9414 6.32764 15.9414C7.33936 15.9414 8.06738 16.4951 8.06738 17.271C8.06738 17.8418 7.7085 18.2861 7.1582 18.3989V18.4604C7.83496 18.5356 8.25879 18.9868 8.25879 19.6362C8.25879 20.501 7.44531 21.1265 6.3208 21.1265C5.22021 21.1265 4.4751 20.5181 4.43066 19.5884H5.41846C5.44922 20.0054 5.80127 20.2686 6.33105 20.2686C6.84717 20.2686 7.20605 19.978 7.20605 19.5576C7.20605 19.127 6.86768 18.8604 6.31396 18.8604Z"
    fill="white"
    fill-opacity="0.9"
  />
</svg>
