<svg
  width="24"
  height="24"
  viewBox="0 0 24 24"
  fill="none"
  xmlns="http://www.w3.org/2000/svg"
>
  <path
    fill-rule="evenodd"
    clip-rule="evenodd"
    d="M19.4037 8.00208H18.3715V4.07483H18.31L17.1 4.90881V3.94836L18.3749 3.06995H19.4037V8.00208ZM5.25 5.24995C4.83579 5.24995 4.5 5.58573 4.5 5.99995C4.5 6.41416 4.83579 6.74995 5.25 6.74995H12.75C13.1642 6.74995 13.5 6.41416 13.5 5.99995C13.5 5.58573 13.1642 5.24995 12.75 5.24995H5.25ZM5.19092 11.2499C4.7767 11.2499 4.44092 11.5857 4.44092 11.9999C4.44092 12.4142 4.7767 12.7499 5.19092 12.7499H12.6909C13.1051 12.7499 13.4409 12.4142 13.4409 11.9999C13.4409 11.5857 13.1051 11.2499 12.6909 11.2499H5.19092ZM4.5 17.9999C4.5 17.5857 4.83579 17.2499 5.25 17.2499H12.75C13.1642 17.2499 13.5 17.5857 13.5 17.9999C13.5 18.4142 13.1642 18.7499 12.75 18.7499H5.25C4.83579 18.7499 4.5 18.4142 4.5 17.9999ZM16.6 11.0444V11.0615H17.557V11.041C17.557 10.5864 17.8852 10.2719 18.3637 10.2719C18.8148 10.2719 19.1361 10.5522 19.1361 10.9487C19.1361 11.27 18.9618 11.5263 18.268 12.2031L16.6581 13.7787V14.4999H20.2162V13.642H18.0561V13.5805L18.9994 12.6816C19.8539 11.8784 20.1444 11.4169 20.1444 10.8803C20.1444 10.0327 19.4267 9.44135 18.3979 9.44135C17.3314 9.44135 16.6 10.0908 16.6 11.0444ZM18.314 18.8589H17.7021V18.0898H18.3037C18.772 18.0898 19.0898 17.8164 19.0898 17.4131C19.0898 17.0166 18.7822 16.7637 18.3003 16.7637C17.8218 16.7637 17.5039 17.0337 17.4766 17.4609H16.5229C16.5571 16.5278 17.251 15.9399 18.3276 15.9399C19.3394 15.9399 20.0674 16.4937 20.0674 17.2695C20.0674 17.8403 19.7085 18.2847 19.1582 18.3975V18.459C19.835 18.5342 20.2588 18.9854 20.2588 19.6348C20.2588 20.4995 19.4453 21.125 18.3208 21.125C17.2202 21.125 16.4751 20.5166 16.4307 19.5869H17.4185C17.4492 20.0039 17.8013 20.2671 18.3311 20.2671C18.8472 20.2671 19.2061 19.9766 19.2061 19.5562C19.2061 19.1255 18.8677 18.8589 18.314 18.8589Z"
    fill="white"
    fill-opacity="0.9"
  />
</svg>
