<svg
  viewBox="0 0 24 24"
  height="24"
  width="24"
  fill="none"
  xmlns="http://www.w3.org/2000/svg"
>
  <path
    fillRule="evenodd"
    clipRule="evenodd"
    d="M8.248 5.35c-.138 0-.75.336-.75.75v8.91a3.25 3.25 0 1 0 1.5 2.74c0-.114.011.061 0-.05.011-.052 0-.395 0-.45V6.85l9.997-2v7.16a3.25 3.25 0 1 0 1.5 2.74c0-.114.011.061 0-.05.011-.052 0-.395 0-.45l-.018-10.4c0-.414-.318-.85-.732-.85L8.248 5.35Zm-.75 12.4a1.75 1.75 0 1 1-3.499 0 1.75 1.75 0 0 1 3.5 0Zm11.497-3a1.75 1.75 0 1 1-3.5 0 1.75 1.75 0 0 1 3.5 0Z"
    fill="white"
  />
</svg>
