<svg
  fill="none"
  viewBox="0 0 24 24"
  width="24"
  height="24"
  xmlns="http://www.w3.org/2000/svg"
>
  <path
    d="M5.25 5.5a.75.75 0 0 0-.75.75v11.5c0 .414.336.75.75.75h11.5a.75.75 0 0 0 .75-.75V14a.75.75 0 0 1 1.5 0v3.75A2.25 2.25 0 0 1 16.75 20H5.25A2.25 2.25 0 0 1 3 17.75V6.25A2.25 2.25 0 0 1 5.25 4H9a.75.75 0 0 1 0 1.5H5.25z"
    fill="white"
  />
  <path
    d="M20.78 2.22a.75.75 0 0 1 0 1.06l-10 10a.75.75 0 1 1-1.06-1.06l10-10a.75.75 0 0 1 1.06 0z"
    fill="white"
  />
  <path
    d="M13 2.75a.75.75 0 0 1 .75-.75h6.5a.75.75 0 0 1 .75.75v6.5a.75.75 0 0 1-1.5 0V3.5h-5.75a.75.75 0 0 1-.75-.75z"
    fill="white"
  />
</svg>
