<svg
  width="24"
  height="24"
  viewBox="0 0 24 24"
  fill="none"
  xmlns="http://www.w3.org/2000/svg"
>
  <path
    fill-rule="evenodd"
    clip-rule="evenodd"
    d="M12.5863 3.01512V3L12.457 3.0044C10.188 3.08168 8.03765 4.03738 6.45981 5.66987C4.88197 7.30236 4 9.48395 4 11.7543C4 14.0247 4.88197 16.2063 6.45981 17.8388C8.03765 19.4713 10.188 20.427 12.457 20.5043L12.4618 20.5043C12.864 20.5027 13.2571 20.3848 13.5938 20.1648C13.9305 19.9448 14.1964 19.6322 14.3594 19.2645C14.5224 18.8969 14.5756 18.4899 14.5126 18.0927C14.4496 17.6955 14.2731 17.3249 14.0043 17.0258C13.929 16.9427 13.8792 16.839 13.8619 16.7283C13.8445 16.6175 13.8599 16.5041 13.9062 16.402C13.9524 16.2999 14.0275 16.2135 14.1223 16.1535C14.217 16.0935 14.3272 16.0625 14.4392 16.0643L16.0213 16.0643C18.8801 16.0643 21.2163 13.7385 21.2163 10.8693C21.2163 6.53532 17.3349 3.07489 12.5863 3.01512ZM12.4636 4.51433C10.5878 4.58401 8.81197 5.37801 7.50928 6.72956C6.20606 8.08166 5.47789 9.88642 5.47789 11.7643C5.47789 13.6422 6.20606 15.447 7.50928 16.7991C8.8125 18.1512 10.5892 18.9453 12.4659 19.0144C12.5822 19.0195 12.6983 18.9893 12.797 18.9275C12.8957 18.8658 12.9734 18.7755 13.0197 18.6686C13.066 18.5618 13.0787 18.4434 13.0563 18.3291C13.0338 18.2149 12.9772 18.1101 12.8939 18.0287L12.8869 18.0219C12.6242 17.7214 12.4536 17.3516 12.3947 16.9569C12.3358 16.5622 12.3914 16.1589 12.555 15.7949C12.7185 15.4308 12.9831 15.1214 13.3173 14.9033C13.6514 14.6851 14.0412 14.5675 14.4403 14.5643L16.0213 14.5643C18.052 14.5643 19.7063 12.9105 19.7063 10.8693C19.7063 7.39324 16.4986 4.51542 12.4636 4.51433ZM12.976 7.28316C12.8522 8.10229 13.4159 8.86665 14.2351 8.9904C15.0542 9.11416 15.8186 8.55045 15.9423 7.73131C16.0661 6.91218 15.5023 6.14782 14.6832 6.02407C13.8641 5.90031 13.0997 6.46403 12.976 7.28316ZM8.97593 7.48317C8.85217 8.3023 9.41588 9.06666 10.235 9.19042C11.0541 9.31417 11.8185 8.75046 11.9423 7.93133C12.066 7.1122 11.5023 6.34783 10.6832 6.22408C9.86404 6.10032 9.09968 6.66404 8.97593 7.48317ZM16.5519 12.1904C15.7327 12.0667 15.169 11.3023 15.2928 10.4832C15.4165 9.66404 16.1809 9.10032 17 9.22408C17.8192 9.34783 18.3829 10.1122 18.2591 10.9313C18.1354 11.7505 17.371 12.3142 16.5519 12.1904Z"
    fill="white"
    fill-opacity="0.9"
  />
</svg>
