<svg
  width="32"
  height="32"
  viewBox="0 0 32 32"
  fill="none"
  xmlns="http://www.w3.org/2000/svg"
>
  <path
    fill-rule="evenodd"
    clip-rule="evenodd"
    d="M14.875 24C14.875 24.5523 15.3227 25 15.875 25H16.125C16.6773 25 17.125 24.5523 17.125 24V17.125H24C24.5523 17.125 25 16.6773 25 16.125V15.875C25 15.3227 24.5523 14.875 24 14.875H17.125V8C17.125 7.44772 16.6773 7 16.125 7H15.875C15.3227 7 14.875 7.44772 14.875 8V14.875H8C7.44772 14.875 7 15.3227 7 15.875V16.125C7 16.6773 7.44772 17.125 8 17.125H14.875V24Z"
    fill="white"
    fill-opacity="0.9"
  />
</svg>
