<svg
  width="24"
  height="24"
  viewBox="0 0 24 24"
  fill="none"
  xmlns="http://www.w3.org/2000/svg"
>
  <path
    fill-rule="evenodd"
    clip-rule="evenodd"
    d="M3 4C3 2.89543 3.89543 2 5 2H16C17.0199 2 17.8615 2.76342 17.9845 3.75H18.5C19.7426 3.75 20.75 4.75736 20.75 6V8.5C20.75 9.74264 19.7426 10.75 18.5 10.75H12.75C12.3358 10.75 12 11.0858 12 11.5V13.063C12.8626 13.285 13.5 14.0681 13.5 15V20C13.5 21.1046 12.6046 22 11.5 22H11C9.89543 22 9 21.1046 9 20V15C9 14.0681 9.63739 13.285 10.5 13.063V11.5C10.5 10.2574 11.5074 9.25 12.75 9.25H18.5C18.9142 9.25 19.25 8.91421 19.25 8.5V6C19.25 5.58579 18.9142 5.25 18.5 5.25H18V5.5C18 6.60457 17.1046 7.5 16 7.5H5C3.89543 7.5 3 6.60457 3 5.5V4ZM11.5 14.5C11.7761 14.5 12 14.7239 12 15V20C12 20.2761 11.7761 20.5 11.5 20.5H11C10.7239 20.5 10.5 20.2761 10.5 20V15C10.5 14.7239 10.7239 14.5 11 14.5H11.5Z"
    fill="white"
    fill-opacity="0.9"
  />
</svg>
