<svg
  width="24"
  height="24"
  viewBox="0 0 24 24"
  fill="none"
  xmlns="http://www.w3.org/2000/svg"
>
  <path
    fill-rule="evenodd"
    clip-rule="evenodd"
    d="M16 3.5H5C4.72386 3.5 4.5 3.72386 4.5 4V5.5C4.5 5.77614 4.72386 6 5 6H16C16.2761 6 16.5 5.77614 16.5 5.5V4C16.5 3.72386 16.2761 3.5 16 3.5ZM5 2C3.89543 2 3 2.89543 3 4V5.5C3 6.60457 3.89543 7.5 5 7.5H16C17.1046 7.5 18 6.60457 18 5.5V5.25H18.5C18.9142 5.25 19.25 5.58579 19.25 6V8.5C19.25 8.91421 18.9142 9.25 18.5 9.25H12.75C11.5074 9.25 10.5 10.2574 10.5 11.5V13.063C9.63739 13.285 9 14.0681 9 15V20C9 21.1046 9.89543 22 11 22H11.5C12.6046 22 13.5 21.1046 13.5 20V15C13.5 14.0681 12.8626 13.285 12 13.063V11.5C12 11.0858 12.3358 10.75 12.75 10.75H18.5C19.7426 10.75 20.75 9.74264 20.75 8.5V6C20.75 4.75736 19.7426 3.75 18.5 3.75H17.9845C17.8615 2.76342 17.0199 2 16 2H5ZM12 15C12 14.7239 11.7761 14.5 11.5 14.5H11C10.7239 14.5 10.5 14.7239 10.5 15V20C10.5 20.2761 10.7239 20.5 11 20.5H11.5C11.7761 20.5 12 20.2761 12 20V15Z"
    fill="white"
    fill-opacity="0.9"
  />
</svg>
