<svg
  width="24"
  height="24"
  viewBox="0 0 24 24"
  fill="none"
  xmlns="http://www.w3.org/2000/svg"
>
  <path
    d="M4 19.25C4 19.6642 4.33579 20 4.75 20C5.16421 20 5.5 19.6642 5.5 19.25V4.75C5.5 4.33579 5.16421 4 4.75 4C4.33579 4 4 4.33579 4 4.75V19.25Z"
    fill="white"
    fill-opacity="0.9"
  />
  <path
    fill-rule="evenodd"
    clip-rule="evenodd"
    d="M7 19C7 19.5523 7.44772 20 8 20H16C16.5523 20 17 19.5523 17 19V5C17 4.44771 16.5523 4 16 4H8C7.44772 4 7 4.44771 7 5V19ZM8.5 18.5H15.5V5.5H8.5V18.5Z"
    fill="white"
    fill-opacity="0.9"
  />
  <path
    d="M19.25 20C18.8358 20 18.5 19.6642 18.5 19.25V4.75C18.5 4.33579 18.8358 4 19.25 4C19.6642 4 20 4.33579 20 4.75V19.25C20 19.6642 19.6642 20 19.25 20Z"
    fill="white"
    fill-opacity="0.9"
  />
</svg>
