<svg
  width="24"
  height="24"
  viewBox="0 0 24 24"
  fill="none"
  xmlns="http://www.w3.org/2000/svg"
>
  <path
    d="M4.75 4C4.33579 4 4 4.33579 4 4.75C4 5.16421 4.33579 5.5 4.75 5.5H19.25C19.6642 5.5 20 5.16421 20 4.75C20 4.33579 19.6642 4 19.25 4H4.75Z"
    fill="white"
    fill-opacity="0.9"
  />
  <path
    fill-rule="evenodd"
    clip-rule="evenodd"
    d="M5 7C4.44772 7 4 7.44772 4 8V16C4 16.5523 4.44772 17 5 17H19C19.5523 17 20 16.5523 20 16V8C20 7.44772 19.5523 7 19 7H5ZM5.5 8.5V15.5H18.5V8.5H5.5Z"
    fill="white"
    fill-opacity="0.9"
  />
  <path
    d="M4 19.25C4 18.8358 4.33579 18.5 4.75 18.5H19.25C19.6642 18.5 20 18.8358 20 19.25C20 19.6642 19.6642 20 19.25 20H4.75C4.33579 20 4 19.6642 4 19.25Z"
    fill="white"
    fill-opacity="0.9"
  />
</svg>
