<svg
  width="24"
  height="24"
  viewBox="0 0 24 24"
  fill="none"
  xmlns="http://www.w3.org/2000/svg"
>
  <rect
    x="3"
    y="11.25"
    width="18"
    height="1.5"
    rx="0.75"
    fill="white"
    fill-opacity="0.9"
  />
  <g opacity="0.2">
    <path
      d="M3 3.75C3 3.33579 3.33579 3 3.75 3H20.25C20.6642 3 21 3.33579 21 3.75C21 4.16421 20.6642 4.5 20.25 4.5H3.75C3.33579 4.5 3 4.16421 3 3.75Z"
      fill="white"
      fill-opacity="0.9"
    />
    <path
      d="M3.75 6.5C3.33579 6.5 3 6.83579 3 7.25C3 7.66421 3.33579 8 3.75 8H14.25C14.6642 8 15 7.66421 15 7.25C15 6.83579 14.6642 6.5 14.25 6.5H3.75Z"
      fill="white"
      fill-opacity="0.9"
    />
    <path
      d="M3.75 19.5C3.33579 19.5 3 19.8358 3 20.25C3 20.6642 3.33579 21 3.75 21H18.25C18.6642 21 19 20.6642 19 20.25C19 19.8358 18.6642 19.5 18.25 19.5H3.75Z"
      fill="white"
      fill-opacity="0.9"
    />
    <path
      d="M3.75 16C3.33579 16 3 16.3358 3 16.75C3 17.1642 3.33579 17.5 3.75 17.5H14.25C14.6642 17.5 15 17.1642 15 16.75C15 16.3358 14.6642 16 14.25 16H3.75Z"
      fill="white"
      fill-opacity="0.9"
    />
  </g>
</svg>
