<svg
  width="24"
  height="24"
  viewBox="0 0 24 24"
  fill="none"
  xmlns="http://www.w3.org/2000/svg"
>
  <path
    fill-rule="evenodd"
    clip-rule="evenodd"
    d="M3.75 6.25C3.33579 6.25 3 6.58579 3 7C3 7.41421 3.33579 7.75 3.75 7.75H12.25C12.6642 7.75 13 7.41421 13 7C13 6.58579 12.6642 6.25 12.25 6.25H3.75ZM17.25 7.75C17.25 7.33579 17.5858 7 18 7C18.4142 7 18.75 7.33579 18.75 7.75V17.25C18.75 17.283 18.7479 17.3155 18.7437 17.3473L21.0231 15.0679C21.316 14.775 21.7909 14.775 22.0838 15.0679C22.3767 15.3608 22.3767 15.8357 22.0838 16.1286L19.2554 18.957C18.572 19.6404 17.4639 19.6404 16.7805 18.957L13.9521 16.1286C13.6592 15.8357 13.6592 15.3608 13.9521 15.0679C14.245 14.775 14.7198 14.775 15.0127 15.0679L17.2522 17.3073C17.2507 17.2884 17.25 17.2693 17.25 17.25V7.75ZM3 12C3 11.5858 3.33579 11.25 3.75 11.25H10.25C10.6642 11.25 11 11.5858 11 12C11 12.4142 10.6642 12.75 10.25 12.75H3.75C3.33579 12.75 3 12.4142 3 12ZM3.75 16.25C3.33579 16.25 3 16.5858 3 17C3 17.4142 3.33579 17.75 3.75 17.75H8.25C8.66421 17.75 9 17.4142 9 17C9 16.5858 8.66421 16.25 8.25 16.25H3.75Z"
    fill="white"
    fill-opacity="0.9"
  />
</svg>
