<svg
  width="24"
  height="24"
  viewBox="0 0 24 24"
  fill="none"
  xmlns="http://www.w3.org/2000/svg"
>
  <path
    fill-rule="evenodd"
    clip-rule="evenodd"
    d="M17 6.35296L15.78 7.57296C15.7113 7.64664 15.6285 7.70575 15.5365 7.74674C15.4445 7.78773 15.3452 7.80977 15.2445 7.81155C15.1438 7.81333 15.0438 7.7948 14.9504 7.75708C14.857 7.71936 14.7722 7.66321 14.701 7.592C14.6297 7.52078 14.5736 7.43594 14.5359 7.34256C14.4982 7.24917 14.4796 7.14914 14.4814 7.04844C14.4832 6.94773 14.5052 6.84842 14.5462 6.75642C14.5872 6.66442 14.6463 6.58162 14.72 6.51296L16.865 4.36696C17.0402 4.19219 17.2632 4.07312 17.5059 4.02472C17.5719 4.01155 17.6386 4.00378 17.7053 4.00133C17.7202 4.00045 17.7351 4 17.75 4C17.7636 4 17.7773 4.00037 17.7908 4.00111C17.9406 4.00583 18.089 4.03735 18.229 4.09496C18.381 4.15796 18.519 4.25096 18.635 4.36696L20.78 6.51296C20.9205 6.65358 20.9993 6.84421 20.9993 7.04296C20.9993 7.24171 20.9205 7.43233 20.78 7.57296C20.6394 7.71341 20.4488 7.7923 20.25 7.7923C20.0513 7.7923 19.8606 7.71341 19.72 7.57296L18.5 6.35296V17.65L19.72 16.43C19.7887 16.3563 19.8715 16.2972 19.9635 16.2562C20.0555 16.2152 20.1548 16.1931 20.2555 16.1914C20.3562 16.1896 20.4562 16.2081 20.5496 16.2458C20.643 16.2836 20.7278 16.3397 20.799 16.4109C20.8703 16.4821 20.9264 16.567 20.9641 16.6604C21.0018 16.7537 21.0204 16.8538 21.0186 16.9545C21.0168 17.0552 20.9948 17.1545 20.9538 17.2465C20.9128 17.3385 20.8537 17.4213 20.78 17.49L18.635 19.636C18.4598 19.8107 18.2367 19.9296 17.994 19.9779C17.7513 20.0261 17.4997 20.0014 17.271 19.907C17.1191 19.8442 16.9812 19.7521 16.865 19.636L14.72 17.49C14.5796 17.3493 14.5007 17.1587 14.5007 16.96C14.5007 16.7612 14.5796 16.5706 14.72 16.43C14.8606 16.2895 15.0513 16.2106 15.25 16.2106C15.4488 16.2106 15.6394 16.2895 15.78 16.43L17 17.65V6.35296ZM3 6C3 5.80109 3.07902 5.61032 3.21967 5.46967C3.36032 5.32902 3.55109 5.25 3.75 5.25H11.25C11.4489 5.25 11.6397 5.32902 11.7803 5.46967C11.921 5.61032 12 5.80109 12 6C12 6.19891 11.921 6.38968 11.7803 6.53033C11.6397 6.67098 11.4489 6.75 11.25 6.75H3.75C3.55109 6.75 3.36032 6.67098 3.21967 6.53033C3.07902 6.38968 3 6.19891 3 6ZM3 12C3 11.8011 3.07902 11.6103 3.21967 11.4697C3.36032 11.329 3.55109 11.25 3.75 11.25H11.25C11.4489 11.25 11.6397 11.329 11.7803 11.4697C11.921 11.6103 12 11.8011 12 12C12 12.1989 11.921 12.3897 11.7803 12.5303C11.6397 12.671 11.4489 12.75 11.25 12.75H3.75C3.55109 12.75 3.36032 12.671 3.21967 12.5303C3.07902 12.3897 3 12.1989 3 12ZM3.75 17.25C3.55109 17.25 3.36032 17.329 3.21967 17.4697C3.07902 17.6103 3 17.8011 3 18C3 18.1989 3.07902 18.3897 3.21967 18.5303C3.36032 18.671 3.55109 18.75 3.75 18.75H11.25C11.4489 18.75 11.6397 18.671 11.7803 18.5303C11.921 18.3897 12 18.1989 12 18C12 17.8011 11.921 17.6103 11.7803 17.4697C11.6397 17.329 11.4489 17.25 11.25 17.25H3.75Z"
    fill="white"
    fill-opacity="0.9"
  />
</svg>
