<svg
  width="24"
  height="24"
  viewBox="0 0 24 24"
  fill="none"
  xmlns="http://www.w3.org/2000/svg"
>
  <path
    opacity="0.2"
    fill-rule="evenodd"
    clip-rule="evenodd"
    d="M14.25 4.5H9.75V19.5H14.25V4.5ZM14.25 3H15.75H19C20.1046 3 21 3.89543 21 5V19C21 20.1046 20.1046 21 19 21H15.75H14.25H9.75H8.25H5C3.89543 21 3 20.1046 3 19V5C3 3.89543 3.89543 3 5 3H8.25H9.75H14.25ZM15.75 19.5H19C19.2761 19.5 19.5 19.2761 19.5 19V5C19.5 4.72386 19.2761 4.5 19 4.5H15.75V19.5ZM5 19.5H8.25V4.5H5C4.72386 4.5 4.5 4.72386 4.5 5V19C4.5 19.2761 4.72386 19.5 5 19.5Z"
    fill="white"
    fill-opacity="0.9"
  />
  <path d="M3 9L21 9" stroke="white" stroke-opacity="0.9" stroke-width="1.5" />
  <path
    d="M3 15L21 15"
    stroke="white"
    stroke-opacity="0.9"
    stroke-width="1.5"
  />
</svg>
