<svg
  width="24"
  height="24"
  viewBox="0 0 24 24"
  fill="none"
  xmlns="http://www.w3.org/2000/svg"
>
  <path
    fill-rule="evenodd"
    clip-rule="evenodd"
    d="M12.75 2.75C12.75 2.33579 12.4142 2 12 2C11.5858 2 11.25 2.33579 11.25 2.75V5H8.75C8.33579 5 8 5.33579 8 5.75C8 6.16421 8.33579 6.5 8.75 6.5H11.25V8.75C11.25 9.16421 11.5858 9.5 12 9.5C12.4142 9.5 12.75 9.16421 12.75 8.75V6.5H15.25C15.6642 6.5 16 6.16421 16 5.75C16 5.33579 15.6642 5 15.25 5H12.75V2.75ZM4.5 19V13.75L19.5 13.75V19C19.5 19.2761 19.2761 19.5 19 19.5H5C4.72386 19.5 4.5 19.2761 4.5 19ZM4.5 7V12.25H19.5V7C19.5 6.72386 19.2761 6.5 19 6.5H18V5H19C20.1046 5 21 5.89543 21 7V19C21 20.1046 20.1046 21 19 21H5C3.89543 21 3 20.1046 3 19V7C3 5.89543 3.89543 5 5 5H6V6.5H5C4.72386 6.5 4.5 6.72386 4.5 7Z"
    fill="white"
    fill-opacity="0.9"
  />
</svg>
