<svg
  width="24"
  height="24"
  viewBox="0 0 24 24"
  fill="none"
  xmlns="http://www.w3.org/2000/svg"
>
  <path
    opacity="0.2"
    fill-rule="evenodd"
    clip-rule="evenodd"
    d="M3 19C3 20.1046 3.89543 21 5 21H19C20.1046 21 21 20.1046 21 19V5C21 3.89543 20.1046 3 19 3H5C3.89543 3 3 3.89543 3 5V19ZM19 4.5H5C4.72386 4.5 4.5 4.72386 4.5 5V8.25L19.5 8.25V5C19.5 4.72386 19.2761 4.5 19 4.5ZM19.5 14.25V9.75L4.5 9.75V14.25L19.5 14.25ZM4.5 15.75V19C4.5 19.2761 4.72386 19.5 5 19.5H19C19.2761 19.5 19.5 19.2761 19.5 19V15.75L4.5 15.75Z"
    fill="white"
    fill-opacity="0.9"
  />
  <path
    d="M15 3L15 21"
    stroke="white"
    stroke-opacity="0.9"
    stroke-width="1.5"
  />
  <path d="M9 3L9 21" stroke="white" stroke-opacity="0.9" stroke-width="1.5" />
</svg>
