<svg
  width="24"
  height="24"
  viewBox="0 0 24 24"
  fill="none"
  xmlns="http://www.w3.org/2000/svg"
>
  <path
    fill-rule="evenodd"
    clip-rule="evenodd"
    d="M7 4.5H12.25V19.5H7C6.72386 19.5 6.5 19.2761 6.5 19V18H5V19C5 20.1046 5.89543 21 7 21H19C20.1046 21 21 20.1046 21 19V12V5C21 3.89543 20.1046 3 19 3H7C5.89543 3 5 3.89543 5 5V6H6.5V5C6.5 4.72386 6.72386 4.5 7 4.5ZM19 19.5H13.75V4.5H19C19.2761 4.5 19.5 4.72386 19.5 5V12V19C19.5 19.2761 19.2761 19.5 19 19.5ZM6.5 8.5C6.5 8.08579 6.16421 7.75 5.75 7.75C5.33579 7.75 5 8.08579 5 8.5V11.25H2.5C2.08579 11.25 1.75 11.5858 1.75 12C1.75 12.4142 2.08579 12.75 2.5 12.75H5V15.5C5 15.9142 5.33579 16.25 5.75 16.25C6.16421 16.25 6.5 15.9142 6.5 15.5V12.75H9C9.41421 12.75 9.75 12.4142 9.75 12C9.75 11.5858 9.41421 11.25 9 11.25H6.5V8.5Z"
    fill="white"
    fill-opacity="0.9"
  />
</svg>
