<svg
  width="24"
  height="24"
  viewBox="0 0 24 24"
  fill="none"
  xmlns="http://www.w3.org/2000/svg"
>
  <path
    d="M3 20.25C3 20.6642 3.33579 21 3.75 21H9.25C9.66421 21 10 20.6642 10 20.25C10 19.8358 9.66421 19.5 9.25 19.5H7.25V4.5L9.25 4.5C9.66421 4.5 10 4.16421 10 3.75C10 3.33579 9.66421 3 9.25 3H3.75C3.33579 3 3 3.33579 3 3.75C3 4.16421 3.33579 4.5 3.75 4.5H5.75L5.75 19.5H3.75C3.33579 19.5 3 19.8358 3 20.25Z"
    fill="white"
    fill-opacity="0.9"
  />
  <path
    d="M19 8.5C19.2761 8.5 19.5 8.72386 19.5 9V10.25C19.5 10.6642 19.8358 11 20.25 11C20.6642 11 21 10.6642 21 10.25V8.5C21 7.67157 20.3284 7 19.5 7H12.5C11.6716 7 11 7.67157 11 8.5V10.25C11 10.6642 11.3358 11 11.75 11C12.1642 11 12.5 10.6642 12.5 10.25V9C12.5 8.72386 12.7239 8.5 13 8.5H15.25V15C15.25 15.2761 15.0261 15.5 14.75 15.5C14.3358 15.5 14 15.8358 14 16.25C14 16.6642 14.3358 17 14.75 17H17.25C17.6642 17 18 16.6642 18 16.25C18 15.8358 17.6642 15.5 17.25 15.5C16.9739 15.5 16.75 15.2761 16.75 15V8.5H19Z"
    fill="white"
    fill-opacity="0.9"
  />
</svg>
