<svg
  width="24"
  height="24"
  viewBox="0 0 24 24"
  fill="none"
  xmlns="http://www.w3.org/2000/svg"
>
  <path
    fill-rule="evenodd"
    clip-rule="evenodd"
    d="M19.5 5L19.5 10.25L4.5 10.25L4.5 5C4.5 4.72386 4.72386 4.5 5 4.5L19 4.5C19.2761 4.5 19.5 4.72386 19.5 5ZM19.5 17V11.75L4.5 11.75L4.5 17C4.5 17.2761 4.72386 17.5 5 17.5H6L6 19H5C3.89543 19 3 18.1046 3 17V5C3 3.89543 3.89543 3 5 3L19 3C20.1046 3 21 3.89543 21 5L21 17C21 18.1046 20.1046 19 19 19H18V17.5H19C19.2761 17.5 19.5 17.2761 19.5 17ZM10.0303 14.9697C9.73744 14.6768 9.26256 14.6768 8.96967 14.9697C8.67678 15.2626 8.67678 15.7374 8.96967 16.0303L10.9393 18L8.96967 19.9697C8.67678 20.2626 8.67678 20.7374 8.96967 21.0303C9.26256 21.3232 9.73744 21.3232 10.0303 21.0303L12 19.0607L13.9697 21.0303C14.2626 21.3232 14.7374 21.3232 15.0303 21.0303C15.3232 20.7374 15.3232 20.2626 15.0303 19.9697L13.0607 18L15.0303 16.0303C15.3232 15.7374 15.3232 15.2626 15.0303 14.9697C14.7374 14.6768 14.2626 14.6768 13.9697 14.9697L12 16.9393L10.0303 14.9697Z"
    fill="white"
    fill-opacity="0.9"
  />
</svg>
