<svg
  width="24"
  height="24"
  viewBox="0 0 24 24"
  fill="none"
  xmlns="http://www.w3.org/2000/svg"
>
  <path
    d="M3.75 3C3.33579 3 3 3.33579 3 3.75V9.25C3 9.66421 3.33579 10 3.75 10C4.16421 10 4.5 9.66421 4.5 9.25V7.25H19.5V9.25C19.5 9.66421 19.8358 10 20.25 10C20.6642 10 21 9.66421 21 9.25V3.75C21 3.33579 20.6642 3 20.25 3C19.8358 3 19.5 3.33579 19.5 3.75V5.75H4.5V3.75C4.5 3.33579 4.16421 3 3.75 3Z"
    fill="white"
    fill-opacity="0.9"
  />
  <path
    d="M15 12.5C15.2761 12.5 15.5 12.7239 15.5 13V14.25C15.5 14.6642 15.8358 15 16.25 15C16.6642 15 17 14.6642 17 14.25V12.5C17 11.6716 16.3284 11 15.5 11H8.5C7.67157 11 7 11.6716 7 12.5V14.25C7 14.6642 7.33579 15 7.75 15C8.16421 15 8.5 14.6642 8.5 14.25V13C8.5 12.7239 8.72386 12.5 9 12.5H11.25V19C11.25 19.2761 11.0261 19.5 10.75 19.5C10.3358 19.5 10 19.8358 10 20.25C10 20.6642 10.3358 21 10.75 21H13.25C13.6642 21 14 20.6642 14 20.25C14 19.8358 13.6642 19.5 13.25 19.5C12.9739 19.5 12.75 19.2761 12.75 19V12.5H15Z"
    fill="white"
    fill-opacity="0.9"
  />
</svg>
