<svg
  width="24"
  height="24"
  viewBox="0 0 24 24"
  fill="none"
  xmlns="http://www.w3.org/2000/svg"
>
  <path
    fill-rule="evenodd"
    clip-rule="evenodd"
    d="M5 4.5H10.25V19.5H5C4.72386 19.5 4.5 19.2761 4.5 19V5C4.5 4.72386 4.72386 4.5 5 4.5ZM17 4.5H11.75V19.5H17C17.2761 19.5 17.5 19.2761 17.5 19V18H19V19C19 20.1046 18.1046 21 17 21H5C3.89543 21 3 20.1046 3 19V5C3 3.89543 3.89543 3 5 3H17C18.1046 3 19 3.89543 19 5V6H17.5V5C17.5 4.72386 17.2761 4.5 17 4.5ZM16.0303 8.96967C15.7374 8.67678 15.2626 8.67678 14.9697 8.96967C14.6768 9.26256 14.6768 9.73744 14.9697 10.0303L16.9393 12L14.9697 13.9697C14.6768 14.2626 14.6768 14.7374 14.9697 15.0303C15.2626 15.3232 15.7374 15.3232 16.0303 15.0303L18 13.0607L19.9697 15.0303C20.2626 15.3232 20.7374 15.3232 21.0303 15.0303C21.3232 14.7374 21.3232 14.2626 21.0303 13.9697L19.0607 12L21.0303 10.0303C21.3232 9.73744 21.3232 9.26256 21.0303 8.96967C20.7374 8.67678 20.2626 8.67678 19.9697 8.96967L18 10.9393L16.0303 8.96967Z"
    fill="white"
    fill-opacity="0.9"
  />
</svg>
