<svg
  width="24"
  height="24"
  viewBox="0 0 24 24"
  fill="none"
  xmlns="http://www.w3.org/2000/svg"
>
  <path
    d="M3.75 21C3.33579 21 3 20.6642 3 20.25C3 19.8358 3.33579 19.5 3.75 19.5H5.75V12.75H3.75C3.33579 12.75 3 12.4142 3 12C3 11.5858 3.33579 11.25 3.75 11.25H5.75L5.75 4.5H3.75C3.33579 4.5 3 4.16421 3 3.75C3 3.33579 3.33579 3 3.75 3H9.25C9.66421 3 10 3.33579 10 3.75C10 4.16421 9.66421 4.5 9.25 4.5L7.25 4.5V11.25H9.25C9.66421 11.25 10 11.5858 10 12C10 12.4142 9.66421 12.75 9.25 12.75H7.25V19.5H9.25C9.66421 19.5 10 19.8358 10 20.25C10 20.6642 9.66421 21 9.25 21H3.75Z"
    fill="white"
    fill-opacity="0.9"
  />
  <path
    fill-rule="evenodd"
    clip-rule="evenodd"
    d="M21 5V19C21 20.1046 20.1046 21 19 21H14C12.8954 21 12 20.1046 12 19V5C12 3.89543 12.8954 3 14 3H19C20.1046 3 21 3.89543 21 5ZM13.5 5V11.25H19.5V5C19.5 4.72386 19.2761 4.5 19 4.5H14C13.7239 4.5 13.5 4.72386 13.5 5ZM19.5 12.75H13.5V19C13.5 19.2761 13.7239 19.5 14 19.5H19C19.2761 19.5 19.5 19.2761 19.5 19V12.75Z"
    fill="white"
    fill-opacity="0.9"
  />
</svg>
