<svg
  width="24"
  height="24"
  viewBox="0 0 24 24"
  fill="none"
  xmlns="http://www.w3.org/2000/svg"
>
  <path
    fill-rule="evenodd"
    clip-rule="evenodd"
    d="M4.5 17V11.75L19.5 11.75V17C19.5 17.2761 19.2761 17.5 19 17.5H18V19H19C20.1046 19 21 18.1046 21 17V5C21 3.89543 20.1046 3 19 3H12H5C3.89543 3 3 3.89543 3 5V17C3 18.1046 3.89543 19 5 19H6V17.5H5C4.72386 17.5 4.5 17.2761 4.5 17ZM19.5 5V10.25L4.5 10.25V5C4.5 4.72386 4.72386 4.5 5 4.5L12 4.5L19 4.5C19.2761 4.5 19.5 4.72386 19.5 5ZM10.7626 19.8232L8.46967 17.5303C8.17678 17.2374 8.17678 16.7626 8.46967 16.4697C8.76256 16.1768 9.23744 16.1768 9.53033 16.4697L11.8232 18.7626C11.9209 18.8602 12.0791 18.8602 12.1768 18.7626L14.4697 16.4697C14.7626 16.1768 15.2374 16.1768 15.5303 16.4697C15.8232 16.7626 15.8232 17.2374 15.5303 17.5303L13.2374 19.8232C12.554 20.5066 11.446 20.5066 10.7626 19.8232Z"
    fill="white"
    fill-opacity="0.9"
  />
</svg>
