<svg
  width="24"
  height="24"
  viewBox="0 0 24 24"
  fill="none"
  xmlns="http://www.w3.org/2000/svg"
>
  <path
    fill-rule="evenodd"
    clip-rule="evenodd"
    d="M6.99997 4.5H12.25V19.5H6.99997C6.72383 19.5 6.49997 19.2761 6.49997 19V18H4.99997V19C4.99997 20.1046 5.8954 21 6.99997 21H19C20.1045 21 21 20.1046 21 19V12V5C21 3.89543 20.1045 3 19 3H6.99997C5.8954 3 4.99997 3.89543 4.99997 5V6H6.49997V5C6.49997 4.72386 6.72383 4.5 6.99997 4.5ZM13.75 19.5V4.5H19C19.2761 4.5 19.5 4.72386 19.5 5V12V19C19.5 19.2761 19.2761 19.5 19 19.5H13.75ZM6.46964 8.46967C6.76253 8.17678 7.23741 8.17678 7.5303 8.46967C7.82319 8.76256 7.82319 9.23744 7.5303 9.53033L5.23741 11.8232C5.13978 11.9209 5.13978 12.0791 5.23741 12.1768L7.5303 14.4697C7.82319 14.7626 7.82319 15.2374 7.5303 15.5303C7.23741 15.8232 6.76253 15.8232 6.46964 15.5303L4.17675 13.2374C3.49333 12.554 3.49333 11.446 4.17675 10.7626L6.46964 8.46967Z"
    fill="white"
    fill-opacity="0.9"
  />
</svg>
