<svg
  width="24"
  height="24"
  viewBox="0 0 24 24"
  fill="none"
  xmlns="http://www.w3.org/2000/svg"
>
  <path
    fill-rule="evenodd"
    clip-rule="evenodd"
    d="M19 3H5C3.89543 3 3 3.89543 3 5V19C3 20.1046 3.89543 21 5 21H19C20.1046 21 21 20.1046 21 19V5C21 3.89543 20.1046 3 19 3ZM4.5 5C4.5 4.72386 4.72386 4.5 5 4.5H19C19.2761 4.5 19.5 4.72386 19.5 5V8H4.5V5ZM4.5 9.5V13.75H8.5V9.5H4.5ZM10 9.5V13.75H14V9.5H10ZM8.5 15.25H4.5V19C4.5 19.2761 4.72386 19.5 5 19.5H8.5V15.25ZM10 19.5V15.25H14V19.5H10ZM15.5 15.25V19.5H19C19.2761 19.5 19.5 19.2761 19.5 19V15.25H15.5ZM15.5 9.5V13.75H19.5V9.5H15.5Z"
    fill="white"
    fill-opacity="0.9"
  />
</svg>
