<svg
  width="24"
  height="24"
  viewBox="0 0 24 24"
  fill="none"
  xmlns="http://www.w3.org/2000/svg"
>
  <path
    fill-rule="evenodd"
    clip-rule="evenodd"
    d="M13.2374 4.17675L15.5303 6.46964C15.8232 6.76253 15.8232 7.23741 15.5303 7.5303C15.2374 7.82319 14.7626 7.82319 14.4697 7.5303L12.1768 5.23741C12.0791 5.13978 11.9209 5.13978 11.8232 5.23741L9.53033 7.5303C9.23744 7.82319 8.76256 7.82319 8.46967 7.5303C8.17678 7.23741 8.17678 6.76253 8.46967 6.46964L10.7626 4.17675C11.446 3.49333 12.554 3.49333 13.2374 4.17675ZM4.5 19V13.75L19.5 13.75V19C19.5 19.2761 19.2761 19.5 19 19.5H5C4.72386 19.5 4.5 19.2761 4.5 19ZM4.5 6.99997V12.25L19.5 12.25V6.99997C19.5 6.72383 19.2761 6.49997 19 6.49997H18V4.99997H19C20.1046 4.99997 21 5.8954 21 6.99997V19C21 20.1045 20.1046 21 19 21H5C3.89543 21 3 20.1045 3 19V6.99997C3 5.8954 3.89543 4.99997 5 4.99997H6V6.49997H5C4.72386 6.49997 4.5 6.72383 4.5 6.99997Z"
    fill="white"
    fill-opacity="0.9"
  />
</svg>
