<svg
  width="24"
  height="24"
  viewBox="0 0 24 24"
  fill="none"
  xmlns="http://www.w3.org/2000/svg"
>
  <path
    fill-rule="evenodd"
    clip-rule="evenodd"
    d="M3 5C3 3.89543 3.89543 3 5 3H19C20.1046 3 21 3.89543 21 5V17.25C21 17.6642 20.6642 18 20.25 18C19.8358 18 19.5 17.6642 19.5 17.25V15.75H15.5V17.25C15.5 17.6642 15.1642 18 14.75 18C14.3358 18 14 17.6642 14 17.25V15.75L4.5 15.75V17.25C4.5 17.6642 4.16421 18 3.75 18C3.33579 18 3 17.6642 3 17.25V5ZM5 4.5H19C19.2761 4.5 19.5 4.72386 19.5 5V8.25L4.5 8.25V5C4.5 4.72386 4.72386 4.5 5 4.5ZM4.5 14.25V9.75L8.5 9.75V14.25H4.5ZM19.5 14.25V9.75L15.5 9.75V14.25H19.5ZM14 14.25L10 14.25V9.75H14V14.25Z"
    fill="white"
    fill-opacity="0.9"
  />
  <path
    fill-rule="evenodd"
    clip-rule="evenodd"
    d="M8.03026 16.9697C8.32315 17.2626 8.32315 17.7374 8.03026 18.0303L6.06059 20L8.03026 21.9697C8.32315 22.2626 8.32315 22.7374 8.03026 23.0303C7.73736 23.3232 7.26249 23.3232 6.96959 23.0303L4.82427 20.885C4.70817 20.769 4.61538 20.6307 4.55248 20.4791C4.48947 20.3272 4.45703 20.1644 4.45703 20C4.45703 19.8356 4.48947 19.6728 4.55248 19.5209C4.61543 19.3692 4.70765 19.2314 4.82388 19.1154C4.82401 19.1153 4.82375 19.1155 4.82388 19.1154L6.96959 16.9697C7.26249 16.6768 7.73736 16.6768 8.03026 16.9697ZM5.88358 19.823C5.88336 19.8228 5.88381 19.8232 5.88358 19.823V19.823Z"
    fill="white"
    fill-opacity="0.9"
  />
  <path
    fill-rule="evenodd"
    clip-rule="evenodd"
    d="M8.03026 16.9697C8.32315 17.2626 8.32315 17.7374 8.03026 18.0303L6.06059 20L8.03026 21.9697C8.32315 22.2626 8.32315 22.7374 8.03026 23.0303C7.73736 23.3232 7.26249 23.3232 6.96959 23.0303L4.82427 20.885C4.70817 20.769 4.61538 20.6307 4.55248 20.4791C4.48947 20.3272 4.45703 20.1644 4.45703 20C4.45703 19.8356 4.48947 19.6728 4.55248 19.5209C4.61543 19.3692 4.70765 19.2314 4.82388 19.1154C4.82401 19.1153 4.82375 19.1155 4.82388 19.1154L6.96959 16.9697C7.26249 16.6768 7.73736 16.6768 8.03026 16.9697ZM5.88358 19.823C5.88336 19.8228 5.88381 19.8232 5.88358 19.823V19.823Z"
    fill="white"
    fill-opacity="0.9"
  />
  <path
    d="M18.25 19.25H5.75C5.33579 19.25 5 19.5858 5 20C5 20.4142 5.33579 20.75 5.75 20.75H18.25C18.6642 20.75 19 20.4142 19 20C19 19.5858 18.6642 19.25 18.25 19.25Z"
    fill="white"
    fill-opacity="0.9"
  />
</svg>
