<svg
  width="24"
  height="24"
  viewBox="0 0 24 24"
  fill="none"
  xmlns="http://www.w3.org/2000/svg"
>
  <path
    fill-rule="evenodd"
    clip-rule="evenodd"
    d="M3 5C3 3.89543 3.89543 3 5 3H19C20.1046 3 21 3.89543 21 5V17.25C21 17.6642 20.6642 18 20.25 18C19.8358 18 19.5 17.6642 19.5 17.25V15.75H10V17.25C10 17.6642 9.66421 18 9.25 18C8.83579 18 8.5 17.6642 8.5 17.25V15.75L4.5 15.75V17.25C4.5 17.6642 4.16421 18 3.75 18C3.33579 18 3 17.6642 3 17.25V5ZM5 4.5H19C19.2761 4.5 19.5 4.72386 19.5 5V8.25L4.5 8.25V5C4.5 4.72386 4.72386 4.5 5 4.5ZM4.5 14.25V9.75L8.5 9.75V14.25H4.5ZM19.5 14.25V9.75L15.5 9.75V14.25H19.5ZM14 14.25L10 14.25V9.75H14V14.25Z"
    fill="white"
    fill-opacity="0.9"
  />
  <path
    fill-rule="evenodd"
    clip-rule="evenodd"
    d="M15.4268 16.9697C15.1339 17.2626 15.1339 17.7374 15.4268 18.0303L17.3964 20L15.4268 21.9697C15.1339 22.2626 15.1339 22.7374 15.4268 23.0303C15.7197 23.3232 16.1945 23.3232 16.4874 23.0303L18.6328 20.885C18.7489 20.769 18.8417 20.6307 18.9045 20.4791C18.9676 20.3272 19 20.1644 19 20C19 19.8356 18.9676 19.6728 18.9045 19.5209C18.8416 19.3692 18.7494 19.2314 18.6332 19.1154L16.4874 16.9697C16.1945 16.6768 15.7197 16.6768 15.4268 16.9697Z"
    fill="white"
    fill-opacity="0.9"
  />
  <path
    fill-rule="evenodd"
    clip-rule="evenodd"
    d="M15.4268 16.9697C15.1339 17.2626 15.1339 17.7374 15.4268 18.0303L17.3964 20L15.4268 21.9697C15.1339 22.2626 15.1339 22.7374 15.4268 23.0303C15.7197 23.3232 16.1945 23.3232 16.4874 23.0303L18.6328 20.885C18.7489 20.769 18.8417 20.6307 18.9045 20.4791C18.9676 20.3272 19 20.1644 19 20C19 19.8356 18.9676 19.6728 18.9045 19.5209C18.8416 19.3692 18.7494 19.2314 18.6332 19.1154L16.4874 16.9697C16.1945 16.6768 15.7197 16.6768 15.4268 16.9697Z"
    fill="white"
    fill-opacity="0.9"
  />
  <path
    d="M5.20703 19.25H17.707C18.1212 19.25 18.457 19.5858 18.457 20C18.457 20.4142 18.1212 20.75 17.707 20.75H5.20703C4.79282 20.75 4.45703 20.4142 4.45703 20C4.45703 19.5858 4.79282 19.25 5.20703 19.25Z"
    fill="white"
    fill-opacity="0.9"
  />
</svg>
