<svg
  width="24"
  height="24"
  viewBox="0 0 24 24"
  fill="none"
  xmlns="http://www.w3.org/2000/svg"
>
  <path
    fill-rule="evenodd"
    clip-rule="evenodd"
    d="M5 4.5H10.25V19.5H5C4.72386 19.5 4.5 19.2761 4.5 19V5C4.5 4.72386 4.72386 4.5 5 4.5ZM17 4.5H11.75V19.5H17C17.2761 19.5 17.5 19.2761 17.5 19V18H19V19C19 20.1046 18.1046 21 17 21H5C3.89543 21 3 20.1046 3 19V5C3 3.89543 3.89543 3 5 3H17C18.1046 3 19 3.89543 19 5V6H17.5V5C17.5 4.72386 17.2761 4.5 17 4.5ZM19.8232 10.7626L17.5303 8.46967C17.2374 8.17678 16.7626 8.17678 16.4697 8.46967C16.1768 8.76256 16.1768 9.23744 16.4697 9.53033L18.7626 11.8232C18.8602 11.9209 18.8602 12.0791 18.7626 12.1768L16.4697 14.4697C16.1768 14.7626 16.1768 15.2374 16.4697 15.5303C16.7626 15.8232 17.2374 15.8232 17.5303 15.5303L19.8232 13.2374C20.5066 12.554 20.5066 11.446 19.8232 10.7626Z"
    fill="white"
    fill-opacity="0.9"
  />
</svg>
