<svg
  width="24"
  height="24"
  viewBox="0 0 24 24"
  fill="none"
  xmlns="http://www.w3.org/2000/svg"
>
  <path
    fill-rule="evenodd"
    clip-rule="evenodd"
    d="M14.25 4.5H9.75V8.25H14.25V4.5ZM8.25 4.5V8.25L4.5 8.25V5C4.5 4.72386 4.72386 4.5 5 4.5H8.25ZM8.25 9.75L4.5 9.75V14.25H8.25V9.75ZM8.25 15.75H4.5V19C4.5 19.2761 4.72386 19.5 5 19.5H8.25V15.75ZM3 15.75V14.25V9.75V8.25V5C3 3.89543 3.89543 3 5 3H8.25H9.75H14.25H15.75H19C20.1046 3 21 3.89543 21 5V8.25V9.75V14.25V15.75V19C21 20.1046 20.1046 21 19 21H15.75H14.25H9.75H8.25H5C3.89543 21 3 20.1046 3 19V15.75ZM19.5 14.25V9.75L15.75 9.75V14.25H19.5ZM15.75 15.75H19.5V19C19.5 19.2761 19.2761 19.5 19 19.5H15.75V15.75ZM14.25 15.75V19.5H9.75V15.75L14.25 15.75ZM14.25 14.25L9.75 14.25V9.75H14.25V14.25ZM19.5 5V8.25L15.75 8.25V4.5H19C19.2761 4.5 19.5 4.72386 19.5 5Z"
    fill="white"
    fill-opacity="0.9"
  />
</svg>
