<svg
  width="24"
  height="24"
  viewBox="0 0 24 24"
  fill="none"
  xmlns="http://www.w3.org/2000/svg"
>
  <path
    d="M5 4.5C4.72386 4.5 4.5 4.72386 4.5 5V19C4.5 19.2761 4.72386 19.5 5 19.5H9C9.27614 19.5 9.5 19.2761 9.5 19V17.5H11V19C11 20.1046 10.1046 21 9 21H5C3.89543 21 3 20.1046 3 19V5C3 3.89543 3.89543 3 5 3H9C10.1046 3 11 3.89543 11 5V6.5H9.5V5C9.5 4.72386 9.27614 4.5 9 4.5H5Z"
    fill="white"
    fill-opacity="0.9"
  />
  <path
    d="M19 4.5C19.2761 4.5 19.5 4.72386 19.5 5V19C19.5 19.2761 19.2761 19.5 19 19.5H15C14.7239 19.5 14.5 19.2761 14.5 19V17.5H13V19C13 20.1046 13.8954 21 15 21H19C20.1046 21 21 20.1046 21 19V5C21 3.89543 20.1046 3 19 3H15C13.8954 3 13 3.89543 13 5V6.5H14.5V5C14.5 4.72386 14.7239 4.5 15 4.5H19Z"
    fill="white"
    fill-opacity="0.9"
  />
  <path
    d="M8 9L10.2929 11.2929C10.6834 11.6834 10.6834 12.3166 10.2929 12.7071L8 15"
    stroke="white"
    stroke-opacity="0.9"
    stroke-width="1.5"
    stroke-linecap="round"
    stroke-linejoin="round"
  />
  <path
    d="M16 9L13.7071 11.2929C13.3166 11.6834 13.3166 12.3166 13.7071 12.7071L16 15"
    stroke="white"
    stroke-opacity="0.9"
    stroke-width="1.5"
    stroke-linecap="round"
    stroke-linejoin="round"
  />
</svg>
