<svg
  width="24"
  height="24"
  viewBox="0 0 24 24"
  fill="none"
  xmlns="http://www.w3.org/2000/svg"
>
  <path
    fill-rule="evenodd"
    clip-rule="evenodd"
    d="M5 4.5H10.25V19.5H5C4.72386 19.5 4.5 19.2761 4.5 19V5C4.5 4.72386 4.72386 4.5 5 4.5ZM17 4.5H11.75V19.5H17C17.2761 19.5 17.5 19.2761 17.5 19V18H19V19C19 20.1046 18.1046 21 17 21H5C3.89543 21 3 20.1046 3 19V5C3 3.89543 3.89543 3 5 3H17C18.1046 3 19 3.89543 19 5V6H17.5V5C17.5 4.72386 17.2761 4.5 17 4.5ZM19 8.5C19 8.08579 18.6642 7.75 18.25 7.75C17.8358 7.75 17.5 8.08579 17.5 8.5V11.25H15C14.5858 11.25 14.25 11.5858 14.25 12C14.25 12.4142 14.5858 12.75 15 12.75H17.5V15.5C17.5 15.9142 17.8358 16.25 18.25 16.25C18.6642 16.25 19 15.9142 19 15.5V12.75H21.5C21.9142 12.75 22.25 12.4142 22.25 12C22.25 11.5858 21.9142 11.25 21.5 11.25H19V8.5Z"
    fill="white"
    fill-opacity="0.9"
  />
</svg>
