<svg
  width="24"
  height="24"
  viewBox="0 0 24 24"
  fill="none"
  xmlns="http://www.w3.org/2000/svg"
>
  <path
    fill-rule="evenodd"
    clip-rule="evenodd"
    d="M4.5 17V11.75L19.5 11.75V17C19.5 17.2761 19.2761 17.5 19 17.5H18V19H19C20.1046 19 21 18.1046 21 17V5C21 3.89543 20.1046 3 19 3H12H5C3.89543 3 3 3.89543 3 5V17C3 18.1046 3.89543 19 5 19H6V17.5H5C4.72386 17.5 4.5 17.2761 4.5 17ZM19.5 5V10.25L4.5 10.25V5C4.5 4.72386 4.72386 4.5 5 4.5L12 4.5L19 4.5C19.2761 4.5 19.5 4.72386 19.5 5ZM12.75 15C12.75 14.5858 12.4142 14.25 12 14.25C11.5858 14.25 11.25 14.5858 11.25 15V17.5H8.75C8.33579 17.5 8 17.8358 8 18.25C8 18.6642 8.33579 19 8.75 19H11.25V21.25C11.25 21.6642 11.5858 22 12 22C12.4142 22 12.75 21.6642 12.75 21.25V19H15.25C15.6642 19 16 18.6642 16 18.25C16 17.8358 15.6642 17.5 15.25 17.5H12.75V15Z"
    fill="white"
    fill-opacity="0.9"
  />
</svg>
