<svg
  width="24"
  height="24"
  viewBox="0 0 24 24"
  fill="none"
  xmlns="http://www.w3.org/2000/svg"
>
  <path
    d="M3 3.75C3 3.33579 3.33579 3 3.75 3C4.16421 3 4.5 3.33579 4.5 3.75V5.75H11.25V3.75C11.25 3.33579 11.5858 3 12 3C12.4142 3 12.75 3.33579 12.75 3.75V5.75H19.5V3.75C19.5 3.33579 19.8358 3 20.25 3C20.6642 3 21 3.33579 21 3.75V9.25C21 9.66421 20.6642 10 20.25 10C19.8358 10 19.5 9.66421 19.5 9.25V7.25H12.75V9.25C12.75 9.66421 12.4142 10 12 10C11.5858 10 11.25 9.66421 11.25 9.25V7.25H4.5V9.25C4.5 9.66421 4.16421 10 3.75 10C3.33579 10 3 9.66421 3 9.25V3.75Z"
    fill="white"
    fill-opacity="0.9"
  />
  <path
    fill-rule="evenodd"
    clip-rule="evenodd"
    d="M19 21H5C3.89543 21 3 20.1046 3 19V14C3 12.8954 3.89543 12 5 12H19C20.1046 12 21 12.8954 21 14V19C21 20.1046 20.1046 21 19 21ZM19 13.5H12.75V19.5H19C19.2761 19.5 19.5 19.2761 19.5 19V14C19.5 13.7239 19.2761 13.5 19 13.5ZM11.25 19.5V13.5H5C4.72386 13.5 4.5 13.7239 4.5 14V19C4.5 19.2761 4.72386 19.5 5 19.5H11.25Z"
    fill="white"
    fill-opacity="0.9"
  />
</svg>
