<svg
  width="24"
  height="24"
  viewBox="0 0 24 24"
  fill="none"
  xmlns="http://www.w3.org/2000/svg"
>
  <g opacity="0.2">
    <path
      fill-rule="evenodd"
      clip-rule="evenodd"
      d="M14.25 4.5H9.75V19.5H14.25V4.5ZM19 3C20.1046 3 21 3.89543 21 5V19C21 20.1046 20.1046 21 19 21H5C3.89543 21 3 20.1046 3 19V5C3 3.89543 3.89543 3 5 3H19ZM15.75 19.5H19C19.2761 19.5 19.5 19.2761 19.5 19V5C19.5 4.72386 19.2761 4.5 19 4.5H15.75V19.5ZM5 19.5H8.25V4.5H5C4.72386 4.5 4.5 4.72386 4.5 5V19C4.5 19.2761 4.72386 19.5 5 19.5Z"
      fill="white"
      fill-opacity="0.9"
    />
    <path
      fill-rule="evenodd"
      clip-rule="evenodd"
      d="M21 8H3V15.5L21 15.5V8ZM19.5 9.5L4.5 9.5V14L19.5 14V9.5Z"
      fill="white"
      fill-opacity="0.9"
    />
  </g>
  <path
    d="M19 3.75C19.6904 3.75 20.25 4.30964 20.25 5V19C20.25 19.6904 19.6904 20.25 19 20.25L5 20.25C4.30964 20.25 3.75 19.6904 3.75 19V5C3.75 4.30964 4.30964 3.75 5 3.75H19Z"
    stroke="white"
    stroke-opacity="0.9"
    stroke-width="1.5"
  />
</svg>
