<svg
  width="24"
  height="24"
  viewBox="0 0 24 24"
  fill="none"
  xmlns="http://www.w3.org/2000/svg"
>
  <path
    fill-rule="evenodd"
    clip-rule="evenodd"
    d="M8.55482 10.5353C9.08435 10.7977 9.66037 10.9532 10.25 10.993V15.25C10.25 15.4489 10.329 15.6397 10.4697 15.7803C10.6103 15.921 10.8011 16 11 16C11.1989 16 11.3897 15.921 11.5303 15.7803C11.671 15.6397 11.75 15.4489 11.75 15.25V3.50001H13.25V15.25C13.25 15.4489 13.329 15.6397 13.4697 15.7803C13.6103 15.921 13.8011 16 14 16C14.1989 16 14.3897 15.921 14.5303 15.7803C14.671 15.6397 14.75 15.4489 14.75 15.25V3.50001H16C16.1989 3.50001 16.3897 3.421 16.5303 3.28034C16.671 3.13969 16.75 2.94893 16.75 2.75001C16.75 2.5511 16.671 2.36034 16.5303 2.21968C16.3897 2.07903 16.1989 2.00001 16 2.00001H11C10.9517 1.99972 10.9035 2.00407 10.856 2.01301C10.2664 1.97322 9.67467 2.04996 9.1147 2.23884C8.55472 2.42772 8.03742 2.72505 7.59235 3.11385C7.14728 3.50265 6.78315 3.97531 6.52074 4.50483C6.25834 5.03435 6.1028 5.61038 6.06301 6.20001C6.02322 6.78965 6.09995 7.38135 6.28884 7.94133C6.47772 8.50131 6.77505 9.0186 7.16385 9.46367C7.55264 9.90874 8.0253 10.2729 8.55482 10.5353ZM10.25 3.51001V9.49001C9.49924 9.42856 8.79906 9.08692 8.2886 8.53296C7.77814 7.97901 7.49475 7.2533 7.49475 6.50001C7.49475 5.74673 7.77814 5.02102 8.2886 4.46706C8.79906 3.91311 9.49924 3.57147 10.25 3.51001ZM8.03032 15.9697C8.32321 16.2626 8.32321 16.7374 8.03032 17.0303L6.81065 18.25H18.25C18.6642 18.25 19 18.5858 19 19C19 19.4142 18.6642 19.75 18.25 19.75H6.81065L8.03032 20.9697C8.32321 21.2626 8.32321 21.7374 8.03032 22.0303C7.73742 22.3232 7.26255 22.3232 6.96966 22.0303L4.82433 19.885L4.82378 19.8845L4.82366 19.8843C4.70756 19.7684 4.61544 19.6307 4.55255 19.4791C4.48953 19.3272 4.45709 19.1644 4.45709 19C4.45709 18.8356 4.48953 18.6728 4.55255 18.5209C4.61549 18.3692 4.70771 18.2314 4.82394 18.1154L4.82433 18.115L6.96966 15.9697C7.26255 15.6768 7.73742 15.6768 8.03032 15.9697Z"
    fill="white"
    fill-opacity="0.9"
  />
</svg>
