<svg
  width="24"
  height="24"
  viewBox="0 0 24 24"
  fill="none"
  xmlns="http://www.w3.org/2000/svg"
>
  <path
    fill-rule="evenodd"
    clip-rule="evenodd"
    d="M6.443 5H2V19.277H7.342C8.956 19.277 10.234 18.913 11.175 18.184C12.115 17.454 12.585 16.439 12.585 15.137C12.585 14.219 12.385 13.483 11.985 12.93C11.585 12.376 10.932 11.999 10.027 11.797V11.699C10.3458 11.6504 10.6515 11.538 10.9259 11.3686C11.2003 11.1992 11.4377 10.9762 11.624 10.713C12.024 10.166 12.224 9.466 12.224 8.613C12.224 7.357 11.767 6.44 10.852 5.864C9.938 5.288 8.468 5 6.443 5ZM6.758 10.174H5V7H6.592C7.458 7 8.091 7.119 8.492 7.356C8.892 7.594 9.092 7.986 9.092 8.533C9.092 9.119 8.908 9.539 8.54 9.793C8.172 10.047 7.578 10.173 6.758 10.173V10.174ZM5 16.72V13H6.875C8.568 13 9.415 13.592 9.415 14.777C9.415 15.435 9.215 15.923 8.818 16.242C8.421 16.562 7.806 16.721 6.973 16.721H5V16.72ZM14 6.749C14 6.55009 14.079 6.35932 14.2197 6.21867C14.3603 6.07802 14.5511 5.999 14.75 5.999H21.25C21.4489 5.999 21.6397 6.07802 21.7803 6.21867C21.921 6.35932 22 6.55009 22 6.749C22 6.94791 21.921 7.13868 21.7803 7.27933C21.6397 7.41998 21.4489 7.499 21.25 7.499H14.75C14.5511 7.499 14.3603 7.41998 14.2197 7.27933C14.079 7.13868 14 6.94791 14 6.749ZM14 10.749C14 10.5501 14.079 10.3593 14.2197 10.2187C14.3603 10.078 14.5511 9.999 14.75 9.999H18.25C18.4489 9.999 18.6397 10.078 18.7803 10.2187C18.921 10.3593 19 10.5501 19 10.749C19 10.9479 18.921 11.1387 18.7803 11.2793C18.6397 11.42 18.4489 11.499 18.25 11.499H14.75C14.5511 11.499 14.3603 11.42 14.2197 11.2793C14.079 11.1387 14 10.9479 14 10.749ZM14.75 13.999C14.5511 13.999 14.3603 14.078 14.2197 14.2187C14.079 14.3593 14 14.5501 14 14.749C14 14.9479 14.079 15.1387 14.2197 15.2793C14.3603 15.42 14.5511 15.499 14.75 15.499H21.25C21.4489 15.499 21.6397 15.42 21.7803 15.2793C21.921 15.1387 22 14.9479 22 14.749C22 14.5501 21.921 14.3593 21.7803 14.2187C21.6397 14.078 21.4489 13.999 21.25 13.999H14.75ZM14 18.75C14 18.5511 14.079 18.3603 14.2197 18.2197C14.3603 18.079 14.5511 18 14.75 18H18.25C18.4489 18 18.6397 18.079 18.7803 18.2197C18.921 18.3603 19 18.5511 19 18.75C19 18.9489 18.921 19.1397 18.7803 19.2803C18.6397 19.421 18.4489 19.5 18.25 19.5H14.75C14.5511 19.5 14.3603 19.421 14.2197 19.2803C14.079 19.1397 14 18.9489 14 18.75Z"
    fill="white"
    fill-opacity="0.9"
  />
</svg>
