<svg
  width="24"
  height="24"
  viewBox="0 0 24 24"
  fill="none"
  xmlns="http://www.w3.org/2000/svg"
>
  <mask
    id="mask0_507_16249"
    style="mask-type: alpha"
    maskUnits="userSpaceOnUse"
    x="2"
    y="2"
    width="20"
    height="20"
  >
    <path
      opacity="0.15"
      fill-rule="evenodd"
      clip-rule="evenodd"
      d="M18 3C18 2.44772 18.4477 2 19 2H21C21.5523 2 22 2.44772 22 3V5C22 5.55228 21.5523 6 21 6H19C18.4477 6 18 5.55228 18 5V3ZM18 11C18 10.4477 18.4477 10 19 10H21C21.5523 10 22 10.4477 22 11V13C22 13.5523 21.5523 14 21 14H19C18.4477 14 18 13.5523 18 13V11ZM19 18C18.4477 18 18 18.4477 18 19V21C18 21.5523 18.4477 22 19 22H21C21.5523 22 22 21.5523 22 21V19C22 18.4477 21.5523 18 21 18H19Z"
      fill="black"
    />
    <path
      opacity="0.3"
      fill-rule="evenodd"
      clip-rule="evenodd"
      d="M15 6C14.4477 6 14 6.44772 14 7V9C14 9.55228 14.4477 10 15 10H17C17.5523 10 18 9.55228 18 9V7C18 6.44772 17.5523 6 17 6H15ZM15 14C14.4477 14 14 14.4477 14 15V17C14 17.5523 14.4477 18 15 18H17C17.5523 18 18 17.5523 18 17V15C18 14.4477 17.5523 14 17 14H15Z"
      fill="#C9A0A0"
    />
    <path
      opacity="0.5"
      fill-rule="evenodd"
      clip-rule="evenodd"
      d="M10 3C10 2.44772 10.4477 2 11 2H13C13.5523 2 14 2.44772 14 3V5C14 5.55228 13.5523 6 13 6H11C10.4477 6 10 5.55228 10 5V3ZM10 11C10 10.4477 10.4477 10 11 10H13C13.5523 10 14 10.4477 14 11V13C14 13.5523 13.5523 14 13 14H11C10.4477 14 10 13.5523 10 13V11ZM11 18C10.4477 18 10 18.4477 10 19V21C10 21.5523 10.4477 22 11 22H13C13.5523 22 14 21.5523 14 21V19C14 18.4477 13.5523 18 13 18H11Z"
      fill="black"
    />
    <path
      opacity="0.7"
      fill-rule="evenodd"
      clip-rule="evenodd"
      d="M7 6C6.44772 6 6 6.44772 6 7V9C6 9.55228 6.44772 10 7 10H9C9.55228 10 10 9.55228 10 9V7C10 6.44772 9.55228 6 9 6H7ZM7 14C6.44772 14 6 14.4477 6 15V17C6 17.5523 6.44772 18 7 18H9C9.55228 18 10 17.5523 10 17V15C10 14.4477 9.55228 14 9 14H7Z"
      fill="#8A8A8A"
    />
    <path
      fill-rule="evenodd"
      clip-rule="evenodd"
      d="M2 3C2 2.44772 2.44772 2 3 2H5C5.55228 2 6 2.44772 6 3V5C6 5.55228 5.55228 6 5 6H3C2.44772 6 2 5.55228 2 5V3ZM2 11C2 10.4477 2.44772 10 3 10H5C5.55228 10 6 10.4477 6 11V13C6 13.5523 5.55228 14 5 14H3C2.44772 14 2 13.5523 2 13V11ZM3 18C2.44772 18 2 18.4477 2 19V21C2 21.5523 2.44772 22 3 22H5C5.55228 22 6 21.5523 6 21V19C6 18.4477 5.55228 18 5 18H3Z"
      fill="black"
    />
  </mask>
  <g mask="url(#mask0_507_16249)">
    <path
      fill-rule="evenodd"
      clip-rule="evenodd"
      d="M2 3C2 2.44772 2.44772 2 3 2H5C5.55228 2 6 2.44772 6 3V5C6 5.55228 5.55228 6 5 6H3C2.44772 6 2 5.55228 2 5V3ZM2 11C2 10.4477 2.44772 10 3 10H5C5.55228 10 6 10.4477 6 11V13C6 13.5523 5.55228 14 5 14H3C2.44772 14 2 13.5523 2 13V11ZM3 18C2.44772 18 2 18.4477 2 19V21C2 21.5523 2.44772 22 3 22H5C5.55228 22 6 21.5523 6 21V19C6 18.4477 5.55228 18 5 18H3ZM10 3C10 2.44772 10.4477 2 11 2H13C13.5523 2 14 2.44772 14 3V5C14 5.55228 13.5523 6 13 6H11C10.4477 6 10 5.55228 10 5V3ZM10 11C10 10.4477 10.4477 10 11 10H13C13.5523 10 14 10.4477 14 11V13C14 13.5523 13.5523 14 13 14H11C10.4477 14 10 13.5523 10 13V11ZM11 18C10.4477 18 10 18.4477 10 19V21C10 21.5523 10.4477 22 11 22H13C13.5523 22 14 21.5523 14 21V19C14 18.4477 13.5523 18 13 18H11ZM19 2C18.4477 2 18 2.44772 18 3V5C18 5.55228 18.4477 6 19 6H21C21.5523 6 22 5.55228 22 5V3C22 2.44772 21.5523 2 21 2H19ZM19 10C18.4477 10 18 10.4477 18 11V13C18 13.5523 18.4477 14 19 14H21C21.5523 14 22 13.5523 22 13V11C22 10.4477 21.5523 10 21 10H19ZM18 19C18 18.4477 18.4477 18 19 18H21C21.5523 18 22 18.4477 22 19V21C22 21.5523 21.5523 22 21 22H19C18.4477 22 18 21.5523 18 21V19ZM7 6C6.44772 6 6 6.44772 6 7V9C6 9.55228 6.44772 10 7 10H9C9.55228 10 10 9.55228 10 9V7C10 6.44772 9.55228 6 9 6H7ZM7 14C6.44772 14 6 14.4477 6 15V17C6 17.5523 6.44772 18 7 18H9C9.55228 18 10 17.5523 10 17V15C10 14.4477 9.55228 14 9 14H7ZM14 7C14 6.44772 14.4477 6 15 6H17C17.5523 6 18 6.44772 18 7V9C18 9.55228 17.5523 10 17 10H15C14.4477 10 14 9.55228 14 9V7ZM14 15C14 14.4477 14.4477 14 15 14H17C17.5523 14 18 14.4477 18 15V17C18 17.5523 17.5523 18 17 18H15C14.4477 18 14 17.5523 14 17V15Z"
      fill="white"
      fill-opacity="0.9"
    />
  </g>
</svg>
