<svg
  width="24"
  height="24"
  viewBox="0 0 24 24"
  fill="none"
  xmlns="http://www.w3.org/2000/svg"
>
  <path
    fill-rule="evenodd"
    clip-rule="evenodd"
    d="M15.7538 4V13.0061C15.7538 14.1807 15.434 15.0906 14.7882 15.729C14.1426 16.3609 13.225 16.6739 12.0428 16.6739C10.8042 16.6739 9.85792 16.3614 9.21192 15.7292C8.56602 15.0971 8.24622 14.1934 8.24622 13.0252V4H6.71832V12.9111C6.71832 14.4993 7.17242 15.7417 8.07602 16.644C8.98552 17.5461 10.2707 18 11.9381 18C13.6054 18 14.9102 17.5492 15.8581 16.6528C16.8057 15.7566 17.2816 14.524 17.2816 12.9491V4H15.7538ZM6.75 19.5C6.3358 19.5 6 19.8358 6 20.25C6 20.6642 6.3358 21 6.75 21H17.25C17.6642 21 18 20.6642 18 20.25C18 19.8358 17.6642 19.5 17.25 19.5H6.75Z"
    fill="white"
    fill-opacity="0.9"
  />
</svg>
