<svg
  width="24"
  height="24"
  viewBox="0 0 24 24"
  fill="none"
  xmlns="http://www.w3.org/2000/svg"
>
  <path
    fill-rule="evenodd"
    clip-rule="evenodd"
    d="M9 15C5.68629 15 3 12.3137 3 9C3 5.68629 5.68629 3 9 3C12.3137 3 15 5.68629 15 9C15 12.3137 12.3137 15 9 15ZM9 17V20H20V9H17C17 9.51269 16.9518 10.0141 16.8596 10.5H18.5V18.5H10.5V16.8596C10.0141 16.9518 9.51269 17 9 17ZM13.5 9C13.5 11.4853 11.4853 13.5 9 13.5C6.51472 13.5 4.5 11.4853 4.5 9C4.5 6.51472 6.51472 4.5 9 4.5C11.4853 4.5 13.5 6.51472 13.5 9Z"
    fill="white"
    fill-opacity="0.9"
  />
</svg>
